<?xml version="1.0" encoding="utf-8"?>
<!-- Generator: Adobe Illustrator 22.1.0, SVG Export Plug-In . SVG Version: 6.00 Build 0)  -->
<svg version="1.1" id="Layer_1" xmlns="http://www.w3.org/2000/svg" xmlns:xlink="http://www.w3.org/1999/xlink" x="0px" y="0px"
   viewBox="0 0 1920 3080" style="enable-background:new 0 0 1920 3080;" xml:space="preserve">
<style type="text/css">
  .st0{fill:url(#SVGID_1_);}
  .st1{fill:#7FDAEF;stroke:#000000;stroke-miterlimit:10;}
  .st2{fill:#40A3AD;stroke:#000000;stroke-miterlimit:10;}
  .st3{fill:#5EC1D1;stroke:#000000;stroke-miterlimit:10;}
  .st4{fill:#4F3DA5;stroke:#000000;stroke-miterlimit:10;}
  .st5{fill:#FFFFFF;}
  .st6{fill:#8079B2;stroke:#000000;stroke-miterlimit:10;}
  .st7{fill:#41A348;stroke:#000000;stroke-miterlimit:10;}
  .st8{fill:url(#SVGID_2_);stroke:#000000;stroke-miterlimit:10;}
  .st9{fill:#4EC64E;stroke:#000000;stroke-miterlimit:10;}
  .st10{fill:#45A39F;}
  .st11{fill:#788787;}
  .st12{fill:#9E6226;}
  .st13{fill:#AF7643;}
  .st14{fill:#0C91C4;}
  .st15{fill:#22B3E0;}
  .st16{fill:#FFAE0B;}
  .st17{fill:#FF860D;}
  .st18{fill:#E00E0E;}
  .st19{fill:#BF1111;}
  .st20{fill:#427696;}
  .st21{fill:#546A79;}
  .st22{fill:#ECF0F1;}
  .st23{fill:#38454F;}
  .st24{fill:#7F8C8D;}
  .st25{fill:#556080;}
  .st26{fill:url(#SVGID_3_);}
  .st27{fill:#E35050;}
  .st28{fill:#178747;}
  .st29{fill:#046029;}
  .st30{fill:#89867C;}
  .st31{fill:#6D6B64;}
  .st32{fill:#FFD00D;}
  .st33{fill:#7A8487;}
  .st34{fill:#596568;}
  .st35{fill:#E56A0E;}
  .st36{fill:#77ACBF;}
  .st37{fill:#E8D918;}
  .st38{fill:#539AAD;}
  .st39{fill:#B0EBE1;}
  .st40{fill:#80CDD6;}
  .st41{fill:#88C9DB;}
  .st42{fill:#56A0BF;}
  .st43{fill:#393B85;}
  .st44{fill:#E5741A;}
  .st45{fill:#FE8821;}
  .st46{fill:#FEA832;}
  .st47{fill:#3C3A41;}
  .st48{fill:#E5E5E5;}
  .st49{fill:#D9D9D9;}
  .st50{fill:#F4ED9D;}
  .st51{fill:none;}
  .bubble {
    animation: kek 2s infinite;
  }
  @keyframes kek {
    0%{
      transform: translate(0%, -0%);
    }
    20%{
      transform: translate(1%, -1%);
    }
    40%{
      transform: translate(0%, -2%);
    }
    60%{
      transform: translate(1%, -3%);
    }
    80%{
      opacity: 1;
      transform: translate(0%, -4%);
    }
    100%{
      transform: translate(1%, -5%);
      opacity: 0;
    }
  }
   .bubble1 {
    animation: keks 1.5s infinite;
  }
  @keyframes keks {
    0%{
      transform: translate(0%, -0%);
    }
    20%{
      transform: translate(1%, -1%);
    }
    40%{
      transform: translate(0%, -2%);
    }
    60%{
      transform: translate(1%, -3%);
    }
    80%{
      opacity: 1;
      transform: translate(0%, -4%);
    }
    100%{
      transform: translate(1%, -5%);
      opacity: 0;
    }
  }
    .bubble2 {
    animation: kekd 2.5s infinite;
  }
  @keyframes kekd {
    0%{
      transform: translate(0%, -0%);
    }
    20%{
      transform: translate(1%, -1%);
    }
    40%{
      transform: translate(0%, -2%);
    }
    60%{
      transform: translate(1%, -3%);
    }
    80%{
      opacity: 1;
      transform: translate(0%, -4%);
    }
    100%{
      transform: translate(1%, -5%);
      opacity: 0;
    }
  }


  .submarine {
    animation: swim 35s infinite;
  }
  @keyframes swim{
    0%{
      transform: translateX(-50%);
    }
    100%{
      transform: translateX(100%);
    }
  }
  .fishy {
        animation: what 15s infinite;
  }

  @keyframes what{
    0%{
      transform: translateX(100%);
    }
    100%{
      transform: translateX(-100%);
    }
  }
  .fishy1 {
        animation: what 15s infinite;
  }

  @keyframes what{
    0%{
      transform: translateX(100%);
    }
    100%{
      transform: translateX(-100%);
    }
  }

  .fishy2 {
    animation: swim1 20s infinite;
  }
  @keyframes swim1{
    0%{
      transform: translateX(-50%);
    }
    100%{
      transform: translateX(120%);
    }
  }
 .sun {
    animation: rot 20s infinite linear;
    transform-origin: 92% 4%;
  }
  @keyframes rot{
    0%{
      transform: rotate(0deg);
    }
    100%{
      transform: rotate(360deg);
    }
  }
  .ship{
    animation: swm 20s infinite;
  }
    @keyframes swm{
    0%{
      transform: translateX(-100%);
    }
    100%{
      transform: translateX(100%);
    }
  }

</style>
<g>
  <g>
    
      <linearGradient id="SVGID_1_" gradientUnits="userSpaceOnUse" x1="954.022" y1="-10328.249" x2="966.1301" y2="-8364.9375" gradientTransform="matrix(1 0 0 1 0 11440)">
      <stop  offset="0" style="stop-color:#146164"/>
      <stop  offset="1" style="stop-color:#1C26ED"/>
    </linearGradient>
    <rect y="914" class="st0" width="1919" height="2172"/>
  </g>
</g>
<rect y="-14.7" class="st1" width="1924.1" height="770.5"/>
<path class="st2" d="M731.9,755.8c-237.2-0.2-474.3-0.5-711.5-0.7c-3.8,0-7.5,0-11.3,0c115.7-205.7,231.5-411.3,347.2-616.9
  L731.9,755.8z"/>
<polygon class="st3" points="689.8,142.5 546.6,751.5 833.1,751.5 "/>
<polygon class="st3" points="1045.2,320.5 766,749.5 1324.5,749.5 "/>
<polygon class="st3" points="1554.2,142.5 1308,751.5 1800.5,751.5 "/>
<path class="st3" d="M1800.6,298.2l-165.3,450c69.7,0,139.4,0,209.1,0c40.5,0,81,0,121.4,0C1910.8,598.2,1855.7,448.2,1800.6,298.2z
  "/>
<g>
  <polygon class="st4" points="541,232.8 326.1,755.8 756,755.8  "/>
</g>
<g>
  <polygon class="st5" points="496.8,340 552.4,268.8 530.7,256.3  "/>
  <polygon class="st5" points="557.1,339.4 548.2,251.4 530.8,254.9  "/>
  <polygon class="st5" points="521.6,351.3 551,258.5 530.7,254.4  "/>
  <polygon class="st5" points="577.4,324.8 549.1,255 523.6,272.3  "/>
  <polygon class="st5" points="540,231.3 527.3,263.3 552.7,263.3  "/>
</g>
<path class="st4" d="M550.5,797.5"/>
<polygon class="st6" points="736,709 584.8,621.9 546.1,482.2 540,289.9 558.8,332.8 558,307.1 583.6,332.8 "/>
<g>
  <polyline class="st4" points="925.5,748 990.4,533 1095.4,511 1139.5,451.7 1179.4,398 1306.5,750.5   "/>
  <polygon class="st5" points="1146.4,502 1167.4,443 1183.4,511 1183.4,464 1211.2,486.5 1178.4,398 1134.6,458.2   "/>
  <polygon class="st6" points="1267.7,643 1172.4,574 1151.9,486.5 1172.4,443 1177.5,497 1183.4,464 1211.4,486   "/>
</g>
<g>
  <polygon class="st4" points="1277,722.2 1355,296.2 1568.2,725.7   "/>
  <polygon class="st6" points="1360.5,327.7 1395.5,527.7 1509.2,606.8 1367.8,322  "/>
  <polygon class="st5" points="1357.4,296.2 1329.9,392.3 1344.2,421.4 1357.4,364.3 1382.5,397.3 1382.5,376.3 1398,376.3   "/>
</g>
<g>
  <polygon class="st4" points="1554.3,763.7 1626.7,322.2 1813.7,535.6 1872.2,754.7  "/>
  <polygon class="st6" points="1749.7,589.2 1831.8,603 1813.7,535.2 1626.7,322.2  "/>
  <polygon class="st5" points="1629.3,423.8 1613.7,401.2 1626.7,322.2 1691.7,396.3 1652.7,378.7   "/>
</g>
<polygon class="st4" points="8,754.6 71.4,392.7 156.4,517.7 224.4,517.7 293,755.8 "/>
<polygon class="st6" points="150.4,598.7 59.4,461.2 71.4,392.7 162.5,517.7 224.4,517.7 254.9,623.6 157.4,605.7 "/>
<polygon class="st5" points="102.4,482.7 63.9,468.1 63.9,424.3 71.4,392.7 125.1,466.3 94.4,449.7 105.4,470.7 "/>
<path class="st7" d="M250.3,746.3c7-86.9-59.9-160.3-134.7-164c-99.9-5-164.8,127-142.6,163c22.3,36.2,149.2,4.7,233.4-41.7
  c76.4-42.1,69.8-84.9,116-94c104.8-20.7,180.4,163.8,274,142c70.5-16.4,73.1-131.4,134-135c66.8-3.9,94.9,132.7,169,132
  c68.8-0.6,102.5-118.9,152-108c40.4,8.9,28.6,90.2,75,110c66.3,28.4,136.7-117.7,246-108c87.3,7.8,108.2,106.8,189,109
  c75.8,2.1,90.8-116.3,163-124c39.6-4.2,91.3,22.7,158,124"/>
<path class="st6" d="M1910.5,1178.5"/>
<linearGradient id="SVGID_2_" gradientUnits="userSpaceOnUse" x1="248.5" y1="-10369.5" x2="248.5" y2="-10369.5" gradientTransform="matrix(1 0 0 1 0 11440)">
  <stop  offset="0" style="stop-color:#146164"/>
  <stop  offset="1" style="stop-color:#1C26ED"/>
</linearGradient>
<path class="st8" d="M248.5,1070.5"/>
<path class="st9" d="M-31.4,767.9C68.6,643,157.8,631.4,205.2,640.2c88.9,16.5,121.1,111.7,203.5,104.7
  c74.1-6.4,76.2-82.6,151.9-94.5c99.2-15.4,144.3,105.8,240.7,89.4c78.4-13.4,128.3-32.6,200.5-39.6c100-9.7,246.5-22,290.3-34.5
  c56.3-16.1,248.3,49.8,325.4,44.7c82.6-5.4,301.3-73.2,338.8-62.6c22,6.3-1.4,71,1,135.3"/>
<path class="st9" d="M1919,1272"/>
<rect y="763.7" class="st10" width="1919" height="150.3"/>
<g class='ship'>
  <path class="st11" d="M150.8,852.3c0,1.2-1.3,2.4-2.6,2.4l0,0c-1.3,0-2.6-1.2-2.6-2.4V642c0-1.2,1.3-2.4,2.6-2.4l0,0
    c1.3,0,2.6,1.2,2.6,2.4V852.3z"/>
  <path class="st12" d="M19.3,841c5.6,23,61,40.8,128.9,40.8s123.4-18.2,128.9-40.8H19.3L19.3,841z"/>
  <g>
    <path class="st13" d="M23.6,849c2.6,3.2,6.4,6.5,10.7,9.3h227.4c4.7-2.8,8.2-6.1,10.7-9.3H23.6z"/>
    <path class="st13" d="M211.4,876.1c12.9-2.4,24.1-5.7,34-9.3H51.1c9.5,3.6,21.1,6.9,34,9.3H211.4z"/>
    <path class="st13" d="M281.5,838.9c0,1.2-1.3,2.4-2.6,2.4H17.6c-1.7,0-2.6-1.2-2.6-2.4l0,0c0-1.6,1.3-2.4,2.6-2.4h260.9
      C280.2,836.5,281.5,837.3,281.5,838.9L281.5,838.9z"/>
  </g>
  <ellipse class="st11" cx="148.2" cy="639.2" rx="9.9" ry="9.3"/>
  <path class="st14" d="M258.3,817.1c0-3.6,0.4-7.3,0.4-11.3c0-83.9-45.6-152.6-101.9-154.2v165.5H258.3z"/>
  <path class="st15" d="M258.3,817.1c0-3.6,0.4-7.3,0.4-11.3c0-83.9-45.6-152.6-101.9-154.2"/>
  <polygon class="st16" points="139.2,651.7 91.9,673.9 139.2,695.7  "/>
  <polygon class="st17" points="139.2,670.6 91.9,673.9 139.2,695.7  "/>
  <polygon class="st18" points="138.3,702.9 138.3,813.1 62.3,813.1  "/>
  <polygon class="st19" points="138.3,730 138.3,813.1 62.3,813.1  "/>
</g>
<g>
  <g class='bubble1'>
    <circle class="st20" cx="539.9" cy="2696" r="9.7"/>
    
      <ellipse transform="matrix(0.7584 -0.6518 0.6518 0.7584 -1623.1194 1005.2354)" class="st5" cx="544.4" cy="2692" rx="1.3" ry="2.5"/>
  </g>
  <g class='bubble2'>
    <circle class="st20" cx="591.7" cy="2692" r="9.7"/>
    
      <ellipse transform="matrix(0.7584 -0.6518 0.6518 0.7584 -1607.9534 1038.1174)" class="st5" cx="596.3" cy="2688" rx="1.3" ry="2.5"/>
  </g>
  <g class='bubble1'>
    <circle class="st20" cx="486.4" cy="2682.3" r="9.7"/>
    
      <ellipse transform="matrix(0.7584 -0.6518 0.6518 0.7584 -1627.1193 967.0565)" class="st5" cx="490.9" cy="2678.3" rx="1.3" ry="2.5"/>
  </g>
  <g class='bubble'>
    <circle class="st20" cx="561.9" cy="2692" r="9.7"/>
    
      <ellipse transform="matrix(0.7584 -0.6518 0.6518 0.7584 -1615.1989 1018.6097)" class="st5" cx="566.4" cy="2688" rx="1.3" ry="2.5"/>
  </g>
  <g class='bubble1'>
    <circle class="st20" cx="512.4" cy="2689.2" r="9.7"/>
    
      <ellipse transform="matrix(0.7584 -0.6518 0.6518 0.7584 -1625.3053 985.7448)" class="st5" cx="517" cy="2685.2" rx="1.3" ry="2.5"/>
  </g>
  <g class='bubble2'>
    <circle class="st20" cx="554" cy="2666.1" r="9.7"/>
    
      <ellipse transform="matrix(0.7584 -0.6518 0.6518 0.7584 -1600.1497 1007.1884)" class="st5" cx="558.5" cy="2662" rx="1.3" ry="2.5"/>
  </g>
  <g class='bubble2'>
    
      <ellipse transform="matrix(0.9806 -0.1961 0.1961 0.9806 -512.336 155.4805)" class="st20" cx="529" cy="2665" rx="9.7" ry="9.7"/>
    
      <ellipse transform="matrix(0.7584 -0.6518 0.6518 0.7584 -1605.5043 990.7913)" class="st5" cx="533.7" cy="2661" rx="1.3" ry="2.5"/>
  </g>
  <g class='bubble1'>
    <circle class="st20" cx="1259.7" cy="2700.7" r="9.7"/>
    
      <ellipse transform="matrix(0.7584 -0.6518 0.6518 0.7584 -1452.2893 1475.4771)" class="st5" cx="1264.1" cy="2696.7" rx="1.3" ry="2.5"/>
  </g>
  <g class='bubble1'>
    <circle class="st20" cx="1311.5" cy="2696.7" r="9.7"/>
    
      <ellipse transform="matrix(0.7584 -0.6518 0.6518 0.7584 -1437.1488 1508.3337)" class="st5" cx="1316" cy="2692.7" rx="1.3" ry="2.5"/>
  </g>
  <g class='bubble'>
    <circle class="st20" cx="1206.2" cy="2687" r="9.7"/>
    
      <ellipse transform="matrix(0.7584 -0.6518 0.6518 0.7584 -1456.2892 1437.2982)" class="st5" cx="1210.6" cy="2683" rx="1.3" ry="2.5"/>
  </g>
  <g class='bubble1'>
    <circle class="st20" cx="1281.7" cy="2696.7" r="9.7"/>
    
      <ellipse transform="matrix(0.7584 -0.6518 0.6518 0.7584 -1444.3689 1488.8514)" class="st5" cx="1286.1" cy="2692.7" rx="1.3" ry="2.5"/>
  </g>
  <g class='bubble'>
    <circle class="st20" cx="1232.2" cy="2693.9" r="9.7"/>
    
      <ellipse transform="matrix(0.7584 -0.6518 0.6518 0.7584 -1454.5438 1455.9946)" class="st5" cx="1236.7" cy="2690" rx="1.3" ry="2.5"/>
  </g>
  <g class='bubble1'>
    <circle class="st20" cx="1273.8" cy="2670.8" r="9.7"/>
    
      <ellipse transform="matrix(0.7584 -0.6518 0.6518 0.7584 -1429.3799 1477.5068)" class="st5" cx="1278.3" cy="2666.8" rx="1.3" ry="2.5"/>
  </g>
  <g class='bubble2'>
    <ellipse class="st20" cx="1248.8" cy="2669.6" rx="9.7" ry="9.7"/>
    
      <ellipse transform="matrix(0.7584 -0.6518 0.6518 0.7584 -1434.6949 1460.9448)" class="st5" cx="1253.3" cy="2665.7" rx="1.3" ry="2.5"/>
  </g>
</g>
<g>
  <path class="st21" d="M586,1611.5c-62.8,0-113.8-51.1-113.8-114.2c0-62.8,51.1-114.2,113.8-114.2s113.8,51.1,113.8,114.2
    C700,1560.2,648.8,1611.5,586,1611.5z"/>
  <path class="st22" d="M586,1418.8c-45.3,0-81.9,35.2-81.9,78.6c0,36.1,25.7,66.5,60.3,75.7c-0.5-2.4-1.1-4.8-1.1-7.3
    c0-13.9,10.3-25.3,22.7-25.3c12.6,0,22.7,11.4,22.7,25.3c0,2.6-0.4,4.9-1.1,7.3c34.6-9.2,60.3-39.6,60.3-75.7
    C668.1,1454,631.3,1418.8,586,1418.8z"/>
  <path class="st23" d="M586,1383.2c16.1,0,31.5,3.5,45.4,9.5c-0.5-16.5-20.7-29.9-45.4-29.9c-24.9,0-45.1,13.4-45.4,29.9
    C554.5,1386.7,569.9,1383.2,586,1383.2z"/>
  <g>
    <path class="st5" d="M536,1474.5c1.1,0,2.4-0.5,3.3-1.5l18.1-20.3c1.8-2,1.8-5.1,0-7.1c-1.8-2-4.6-2-6.4,0l-18.1,20.3
      c-1.8,2-1.8,5.1,0,7.1C533.6,1474.1,534.7,1474.5,536,1474.5z"/>
    <path class="st5" d="M550.8,1471c-0.7,0.9-1.3,2.2-1.3,3.7c0,1.3,0.5,2.6,1.3,3.7c0.9,0.9,2,1.5,3.3,1.5c1.1,0,2.4-0.5,3.3-1.5
      c0.7-0.9,1.3-2.2,1.3-3.7c0-1.3-0.5-2.6-1.3-3.7C555.8,1469.2,552.7,1469.2,550.8,1471z"/>
    <path class="st5 " d="M586,1469.5c1.1,0,2.4-0.5,3.3-1.5c0.7-0.9,1.3-2.2,1.3-3.7s-0.5-2.6-1.3-3.7c-1.6-1.8-4.8-1.8-6.4,0
      c-0.7,0.9-1.3,2.2-1.3,3.7c0,1.3,0.5,2.6,1.3,3.7C583.6,1469,584.9,1469.5,586,1469.5z"/>
    <path class="st5 " d="M595.2,1459.3c1.1,0,2.4-0.5,3.3-1.5l4.6-5.1c1.8-2,1.8-5.1,0-7.1c-1.8-2-4.6-2-6.4,0l-4.6,5.1
      c-1.8,2-1.8,5.1,0,7.1C592.8,1458.9,593.9,1459.3,595.2,1459.3z"/>
    <path class="st5" d="M596.4,1471l-9.2,10.1c-1.8,2-1.8,5.1,0,7.1c0.9,0.9,2,1.5,3.3,1.5c1.1,0,2.4-0.5,3.3-1.5l9.2-10.1
      c1.8-2,1.8-5.1,0-7.1C601.2,1469,598.3,1469,596.4,1471z"/>
    <path class="st5" d="M578.3,1491.3c-0.7,0.9-1.3,2.2-1.3,3.7s0.5,2.6,1.3,3.7c0.9,0.9,2,1.5,3.3,1.5c1.3,0,2.4-0.5,3.3-1.5
      c0.7-0.9,1.3-2.2,1.3-3.7s-0.5-2.6-1.3-3.7C582.9,1489.3,580,1489.3,578.3,1491.3z"/>
    <path class="st5" d="M569.1,1501.4l-13.7,15.2c-1.8,2-1.8,5.1,0,7.1c0.9,0.9,2,1.5,3.3,1.5c1.1,0,2.4-0.5,3.3-1.5l13.7-15.2
      c1.8-2,1.8-5.1,0-7.1C573.9,1499.4,571,1499.4,569.1,1501.4z"/>
    <path class="st5" d="M552.8,1501.4c-1.6-1.8-4.8-1.8-6.4,0c-0.7,0.9-1.3,2.2-1.3,3.7c0,1.3,0.5,2.6,1.3,3.7c0.9,0.9,2,1.5,3.3,1.5
      c1.1,0,2.4-0.5,3.3-1.5c0.7-0.9,1.3-2.2,1.3-3.7C554.1,1503.6,553.6,1502.3,552.8,1501.4z"/>
    <path class="st5" d="M537.3,1511.5l-4.6,5.1c-1.8,2-1.8,5.1,0,7.1c0.9,0.9,2,1.5,3.3,1.5c1.1,0,2.4-0.5,3.3-1.5l4.6-5.1
      c1.8-2,1.8-5.1,0-7.1C541.8,1509.5,539.1,1509.5,537.3,1511.5z"/>
  </g>
  <ellipse class="st24" cx="586" cy="1565.9" rx="22.7" ry="25.3"/>
  <path class="st23" d="M683.3,1556.6c-1.8,2.9-3.8,5.9-5.9,8.6c0.5,0.5,1.3,0.7,2,0.9c19.4,2.6,34.1,21.1,34.1,42.7
    c0,22.4-15,40.7-34.8,42.9c-2.6,0.2-4.4,2.7-4,5.5c0.2,2.6,2.2,4.6,4.6,4.6c0.2,0,0.4,0,0.4,0c24.6-2.7,43.1-25.5,43.1-53
    C722.7,1583.1,705.8,1561.1,683.3,1556.6z"/>
  <path class="st25" d="M654.3,1589H654c-19.1,14.1-42.5,22.5-68,22.5c-25.3,0-48.7-8.4-67.8-22.4l-26.6,27.7
    c-10.6,11.2-9.9,30.6,1.8,40.1l0.2,0.2h184.9l0.2-0.2c11.9-9.5,12.6-29,1.8-40.1L654.3,1589z"/>
  <path class="st24" d="M680.2,1609.5c-1.1-2.6-3.8-3.5-6.2-2.2c-7.7,4.4-15.4,8.2-23.5,11.5L638,1598l-7.5,5.7l11.2,18.7
    c-6.6,2.4-13.4,4.2-20.2,5.7l-7.5-20.9l-8.4,3.8l6.8,18.7c-8.6,1.3-17.2,2.2-25.8,2.2c-8.8,0-17.8-0.7-26.6-2.2l6.8-18.9l-8.4-3.8
    l-7.5,20.9c-6.8-1.5-13.6-3.3-20.2-5.7l11.2-18.7l-7.5-5.7l-12.5,20.9c-7.9-3.3-15.6-7-22.9-11.4c-2.2-1.3-4.9-0.4-6.2,2.2
    c-1.1,2.6-0.4,5.5,1.8,6.8c28.6,16.9,60.3,25.7,92,25.7c31.5,0,63.4-8.8,92-25.7C680.5,1615,681.3,1611.9,680.2,1609.5z"/>
  <rect x="581.4" y="1591.2" class="st23" width="9.2" height="45.6"/>
</g>

<linearGradient id="SVGID_3_" gradientUnits="userSpaceOnUse" x1="959.5" y1="2580" x2="959.5" y2="2332" gradientTransform="matrix(1 0 0 -1 0 5368)">
  <stop  offset="0" style="stop-color:#FCC556"/>
  <stop  offset="1" style="stop-color:#A3750B"/>
</linearGradient>
<rect y="2736" class="st26" width="1919" height="350"/>
<g>
  <path class="st27" d="M154.3,2724.4c0.4-5,5.1-49.2,10.3-65.7c5.1-16.6,8.2-57.8,32.4-17.8c23.1,38.3,40.6,70.5,63.5,70
    c25.7-0.6,88.5-3.4,96-1.1c7.4,2.3,12.5,13.8-19.5,35.4c-32,21.6-53,22.8-35.3,52.9c23.3,39.5,45.7,71.4,33.4,82.2
    c-12.4,10.9-33-1.3-60.7-26.6c-25.4-23.2-47-53-62.8-7.4c-11.9,34.5-19.7,85.8-40.2,85.4c-20-0.4-22.7-40.8-26.8-72.1
    s6.5-60.1-18.7-61.3s-81-1.3-84.6-19.5c-2.5-12.6,34.1-26.1,61.6-30.7C131.3,2743.6,152.6,2747.1,154.3,2724.4z"/>
  <path class="st5" d="M258.8,2791.5c-1.2-5.2-6.1-8.7-10.9-7.8c-4.8,0.9-7.7,5.9-6.5,11.1s6.1,8.7,10.9,7.8
    C257.1,2801.7,260,2796.7,258.8,2791.5z"/>
  <path class="st5" d="M204.6,2720.5c-1.2-5.2-6.1-8.7-10.9-7.8c-4.8,0.9-7.7,5.9-6.5,11.1c1.2,5.2,6.1,8.7,10.9,7.8
    C202.9,2730.7,205.8,2725.7,204.6,2720.5z"/>
  <path class="st5" d="M278.8,2739.3c-1.2-5.2-6.1-8.7-10.9-7.8s-7.7,5.9-6.5,11.1c1.2,5.2,6.1,8.7,10.9,7.8
    C277.1,2749.5,280,2744.5,278.8,2739.3z"/>
  <path class="st5" d="M235.7,2762.4c-0.9-3.8-4.4-6.3-7.9-5.6s-5.6,4.3-4.7,8c0.9,3.8,4.4,6.3,7.9,5.6S236.6,2766.1,235.7,2762.4z"
    />
  <path class="st5" d="M188.7,2824.7c-0.9-3.8-4.4-6.3-7.9-5.6s-5.6,4.3-4.7,8s4.4,6.3,7.9,5.6S189.6,2828.4,188.7,2824.7z"/>
  <path class="st5" d="M165.9,2775.2c-0.9-3.8-4.4-6.3-7.9-5.6s-5.6,4.3-4.7,8c0.9,3.8,4.4,6.3,7.9,5.6
    C164.7,2782.6,166.8,2779,165.9,2775.2z"/>
  <path class="st5" d="M200.7,2689.4c-0.9-3.8-4.4-6.3-7.9-5.6s-5.6,4.3-4.7,8c0.9,3.8,4.4,6.3,7.9,5.6
    C199.5,2696.8,201.6,2693.2,200.7,2689.4z"/>
</g>






<path class="st28" d="M995.3,2898.2c-26.7,15.5-212.9-221.3-182.1-257c6-7,19-4.8,27.9-3.2c112.7,20.5,174.4,202.6,157.6,255.2
  C998.2,2894.9,997.3,2897,995.3,2898.2z"/>
<path class="st28" d="M924.7,2556c0.6,0.8,2.3,3,4.3,5.7c11.9,16.1,99.5,137.6,106.9,308.7c1,23.3-0.3,27-2.2,27.5
  c-13.6,4.1-70.7-161.5-117.8-305.3"/>
<path class="st28" d="M1020,2600c-5.6,242.1,3.7,297,14,298c11.7,1.1,29-66.6,34-116c8.1-79.8-12.6-143.3-26-176"/>
<path class="st28" d="M1069.8,2898c22.2,4.7,111-265.4,90.2-274.8c-11.4-5.1-60.8,64.7-82,140.8
  C1061.9,2821.8,1058.5,2895.6,1069.8,2898z"/>
<path class="st29" d="M901.6,2702c1-47.6,5.9-71.4,14.7-71.5c17.9-0.2,51.9,97.1,102,291.8"/>
<path class="st29" d="M1030.7,2926c-21.6-7.3,32.7-268.1,55.7-265.9c13.2,1.3,24.9,89.9-2,171.6
  C1070.4,2874.1,1041.2,2929.5,1030.7,2926z"/>
<path class="st29" d="M1015.5,2916.8c24.3-5.5-6.2-294.6-31.3-294.7c-13.7-0.1-32.6,86.2-20,166.7
  C973.7,2849.6,1003.1,2919.6,1015.5,2916.8z"/>
<path class="st28" d="M1703.9,2884.1c-30.6,4-111.1-286.2-69-307.3c8.2-4.1,19.4,2.9,27,7.8c96,62.4,82.8,254.2,47,296.3
  C1707.7,2882.2,1706.2,2883.8,1703.9,2884.1z"/>
<path class="st28" d="M1694.4,2518.9c0.5,0.9,1.7,3.3,3.2,6.4c8.9,18,73.8,153,51,322.7c-3.1,23.1-5.1,26.5-7,26.7
  c-14.1,1.7-41.2-171.4-62.3-321.2"/>
<path class="st28" d="M1792,2567.7c-58.5,235-61.5,290.6-51.6,293.8c11.2,3.7,42.9-58.6,58.6-105.7c25.4-76.1,19.1-142.5,13.2-177.4
  "/>
<path class="st28" d="M1754.1,2856.8c21.3,7.8,147.7-246.9,128.4-259.1c-10.5-6.7-69.4,55.4-101.2,127.6
  C1757.1,2780.1,1743.2,2852.8,1754.1,2856.8z"/>
<path class="st29" d="M1584.2,2706.5c-17-44.5-21.4-68.4-13.2-71.8c16.5-6.9,84.5,70.5,204.1,232.2"/>
<path class="st29" d="M1716.6,2869.4c-16.6-15.7,142.3-229.5,162.3-217.9c11.4,6.7-15.2,92.1-73.9,154.9
  C1774.5,2839,1724.7,2877,1716.6,2869.4z"/>
<path class="st29" d="M1764.5,2886.1c28.9-5.3-7.4-285.9-37.1-286.1c-16.3-0.1-38.6,83.7-23.7,161.8
  C1715,2820.9,1749.8,2888.8,1764.5,2886.1z"/>
<g class="submarine">
  <path class="st30" d="M535.2,1978.4c-11.3,0-21.1-9.7-21.1-20.9v-121.1c0-11.2,9.8-20.9,21.1-20.9h46.6v25.4H539v116.6
    c0-2.2-2.3-4.5-4.5-4.5v25.4H535.2z"/>
  <g>
    <path class="st31" d="M535.2,1840.8c-11.3,0-21.1,9.7-21.1,20.9v95.7c0,11.2,9.8,20.9,21.1,20.9V1953c2.3,0,4.5,2.2,4.5,4.5v-91.2
      v-25.4C539.8,1840.8,535.2,1840.8,535.2,1840.8z"/>
    <path class="st31" d="M584.9,1843c0,2.2-2.3,4.5-4.5,4.5l0,0c-2.3,0-4.5-2.2-4.5-4.5v-28.4c0-2.2,2.3-4.5,4.5-4.5l0,0
      c2.3,0,4.5,2.2,4.5,4.5V1843z"/>
  </g>
  <path class="st16" d="M599.9,1941c0,3-2.3,5.2-5.3,5.2H470.6c-3,0-5.3-2.2-5.3-5.2l11.3-46.4c0-3,2.3-5.2,5.3-5.2h95.5
    c3,0,5.3,2.2,5.3,5.2L599.9,1941z"/>
  <path class="st32" d="M634.5,1986.6c0,4.5-3.8,8.2-8.3,8.2H438.2c-4.5,0-8.3-3.7-8.3-8.2l16.5-70.3c0-4.5,3.8-8.2,8.3-8.2h145.9
    c4.5,0,8.3,3.7,8.3,8.2L634.5,1986.6z"/>
  <path class="st16" d="M634.5,1991.1c0,4.5-3.8,8.2-8.3,8.2H438.2c-4.5,0-8.3-3.7-8.3-8.2l16.5-70.3c0-4.5,3.8-8.2,8.3-8.2h145.9
    c4.5,0,8.3,3.7,8.3,8.2L634.5,1991.1z"/>
  <g>
    <path class="st33" d="M365.2,2068.1c0,5.2-1.5,9.7-3.8,9.7c-1.5,0-6.8-9-6.8-14.2s5.3-4.5,6.8-4.5
      C363.7,2059.1,365.2,2062.9,365.2,2068.1z"/>
    <path class="st33" d="M354.7,2086.8c0-5.2,1.5-9.7,3.8-9.7c1.5,0,6.8,9,6.8,14.2c0,5.2-5.3,4.5-6.8,4.5
      C356.2,2096.5,354.7,2092,354.7,2086.8z"/>
  </g>
  <path class="st34" d="M432.9,2077.8c0,1.5-1.5,3-3,3h-67c-1.5,0-3-1.5-3-3l0,0c0-1.5,1.5-3,3-3h67
    C431.4,2074.8,432.9,2075.6,432.9,2077.8L432.9,2077.8z"/>
  <path class="st33" d="M593.9,2086c0,4.5-3.8,8.2-8.3,8.2H408.9c-4.5,0-8.3-3.7-8.3-8.2v-18.7c0-4.5,3.8-8.2,8.3-8.2h176.8
    c4.5,0,8.3,3.7,8.3,8.2V2086z"/>
  <path class="st34" d="M604.5,2086c0,4.5-3.8,8.2-8.3,8.2H419.4c-4.5,0-8.3-3.7-8.3-8.2v-18.7c0-4.5,3.8-8.2,8.3-8.2h176.8
    c4.5,0,8.3,3.7,8.3,8.2V2086L604.5,2086z"/>
  <path class="st32" d="M364.5,1988.1c0,18.7-36.1,34.4-46.6,34.4s-19.6-15.7-19.6-34.4c0-18.7,2.3-40.4,12.8-40.4
    C322.4,1947.7,364.5,1969.4,364.5,1988.1z"/>
  <path class="st16" d="M349.4,1988.1c0,18.7-20.3,34.4-31.6,34.4s-19.6-15.7-19.6-34.4c0-18.7,2.3-40.4,12.8-40.4
    C322.4,1947.7,349.4,1969.4,349.4,1988.1z"/>
  <path class="st32" d="M764.7,2015.8c0,35.1-36.9,79.3-165.5,79.3c-127.9,0-299.4-44.1-299.4-79.3c0-35.1,103.8-63.6,232.4-63.6
    S764.7,1980.6,764.7,2015.8z"/>
  <path class="st16" d="M764.7,2015.8c0,35.1-36.9,79.3-165.5,79.3c-127.9,0-299.4-44.1-299.4-79.3c0-35.1,121.9-50.8,249.7-50.8
    C678.2,1964.9,764.7,1980.6,764.7,2015.8z"/>
  <path class="st17" d="M764.7,2015.8c0,35.1-36.9,79.3-165.5,79.3c-127.9,0-299.4-44.1-299.4-79.3"/>
  <path class="st35" d="M451,2052.4c-11.3,0-20.3-17.9-20.3-29.2c0-11.2,9-20.2,20.3-20.2s20.3,9,20.3,20.2
    C471.3,2034.4,462.3,2052.4,451,2052.4z"/>
  <path class="st36" d="M451,2044.2c-11.3,0-20.3-9-20.3-20.2c0-11.2,9-20.2,20.3-20.2s20.3,9,20.3,20.2
    C471.3,2035.2,462.3,2044.2,451,2044.2z"/>
  <path class="st37" d="M451,2005.3c10.5,0,18.8,8.2,18.8,18.7c0,10.5-8.3,18.7-18.8,18.7s-18.8-8.2-18.8-18.7
    C432.2,2013.5,441.2,2005.3,451,2005.3 M451,2000.8c-12.8,0-22.6,10.5-22.6,22.4c0,12.7,10.5,22.4,22.6,22.4
    c12.8,0,22.6-10.5,22.6-22.4S463.8,2000.8,451,2000.8L451,2000.8z"/>
  <path class="st38" d="M432.2,2023.2c0,10.5,8.3,18.7,18.8,18.7s18.8-8.2,18.8-18.7c0-3-0.8-5.2-1.5-7.5h-33.9
    C432.9,2018,432.2,2021,432.2,2023.2z"/>
  <path class="st35" d="M532.2,2052.4c-11.3,0-20.3-17.9-20.3-29.2c0-11.2,9-20.2,20.3-20.2c11.3,0,20.3,9,20.3,20.2
    C552.5,2034.4,543.5,2052.4,532.2,2052.4z"/>
  <path class="st36" d="M532.2,2044.2c-11.3,0-20.3-9-20.3-20.2c0-11.2,9-20.2,20.3-20.2c11.3,0,20.3,9,20.3,20.2
    C552.5,2035.2,543.5,2044.2,532.2,2044.2z"/>
  <path class="st37" d="M532.2,2005.3c10.5,0,18.8,8.2,18.8,18.7c0,10.5-8.3,18.7-18.8,18.7c-10.5,0-18.8-8.2-18.8-18.7
    C513.4,2013.5,522.5,2005.3,532.2,2005.3 M532.2,2000.8c-12.8,0-22.6,10.5-22.6,22.4c0,12.7,10.5,22.4,22.6,22.4
    c12.8,0,22.6-10.5,22.6-22.4S545,2000.8,532.2,2000.8L532.2,2000.8z"/>
  <path class="st38" d="M513.4,2023.2c0,10.5,8.3,18.7,18.8,18.7c10.5,0,18.8-8.2,18.8-18.7c0-3-0.8-5.2-1.5-7.5h-33.9
    C514.2,2018,513.4,2021,513.4,2023.2z"/>
  <path class="st35" d="M613.5,2052.4c-11.3,0-20.3-17.9-20.3-29.2c0-11.2,9-20.2,20.3-20.2c11.3,0,20.3,9,20.3,20.2
    C633.8,2034.4,624.8,2052.4,613.5,2052.4z"/>
  <path class="st36" d="M613.5,2044.2c-11.3,0-20.3-9-20.3-20.2c0-11.2,9-20.2,20.3-20.2c11.3,0,20.3,9,20.3,20.2
    C633.8,2035.2,624.8,2044.2,613.5,2044.2z"/>
  <path class="st37" d="M613.5,2005.3c10.5,0,18.8,8.2,18.8,18.7c0,10.5-8.3,18.7-18.8,18.7c-10.5,0-18.8-8.2-18.8-18.7
    C594.7,2013.5,603.7,2005.3,613.5,2005.3 M613.5,2000.8c-12.8,0-22.6,10.5-22.6,22.4c0,12.7,10.5,22.4,22.6,22.4
    c12.8,0,22.6-10.5,22.6-22.4S626.3,2000.8,613.5,2000.8L613.5,2000.8z"/>
  <path class="st38" d="M594.7,2023.2c0,10.5,8.3,18.7,18.8,18.7c10.5,0,18.8-8.2,18.8-18.7c0-3-0.8-5.2-1.5-7.5h-33.9
    C595.4,2018,594.7,2021,594.7,2023.2z"/>
  <path class="st33" d="M364.5,2077.8c0,2.2-2.3,4.5-4.5,4.5c-2.3,0-4.5-2.2-4.5-4.5s2.3-4.5,4.5-4.5
    C362.2,2073.3,364.5,2074.8,364.5,2077.8z"/>
</g>


<g class='fishy'>
  <g>
    <g>
      <path class="st39" d="M1813.6,1631.7l6.9-6.9l0.1,0.1c2.7,2.7,3.4,6.7,2.1,10c-0.4,1-0.9,1.9-1.7,2.7l-10.1-3.2L1813.6,1631.7z"
        />
      <path class="st39" d="M1810.2,1601.6l0.2,0.2c7.3,7.3,7.3,19.1,0,26.4l-2.3,2.3l-2.9,2.9l-27.5,0.7L1810.2,1601.6z"/>
    </g>
    <g>
      <path class="st40" d="M1818,1633.1c1.6,0.6,3.2,1.2,4.7,1.9c-0.4,1-0.9,1.9-1.7,2.7l-10.1-3.2l2.7-2.7
        C1815.1,1632.2,1816.6,1632.6,1818,1633.1z"/>
      <path class="st40" d="M1781.9,1629.9c3.7-0.6,7.6-0.9,11.6-0.9c5.1,0,10,0.5,14.7,1.4l-2.9,2.9l-27.5,0.7L1781.9,1629.9z"/>
    </g>
    <path class="st41" d="M1757.4,1641.9c5.6-3.3,11.9-5.9,18.9-7.5c1-0.2,1.9-0.4,2.9-0.6c4.6-0.9,9.4-1.3,14.3-1.3
      c8.8,0,17.1,1.5,24.5,4.1c4.2,1.5,8,3.3,11.6,5.4c-4.6,15.6-19,27-36.1,27c-6.2,0-12.1-1.5-17.2-4.2c-0.8-0.4-1.7-0.9-2.5-1.4
      c-6-3.7-10.8-9-14-15.3"/>
    <path class="st42" d="M1759.8,1648.1c32.4,24.2,58.2-1.3,58.2-11.6v0c4.2,1.5,8,3.3,11.6,5.4c-4.6,15.6-19,27-36.1,27
      C1778.7,1668.9,1766,1660.4,1759.8,1648.1"/>
    <circle class="st5" cx="1771.2" cy="1647.3" r="4.5"/>
    <path class="st43" d="M1769.4,1647.7c-0.2-0.7,0.2-1.5,0.9-1.9c0.7-0.4,1.5-0.3,2.1,0.2c0.6,0.5,0.8,1.3,0.5,2
      c-0.3,0.7-0.9,1.1-1.7,1.1C1770.3,1649.1,1769.6,1648.5,1769.4,1647.7z"/>
    <g>
      <path class="st42" d="M1786.7,1657.3c0-0.7,0.6-1.3,1.3-1.3c0.9,0,1.6-0.7,1.6-1.6s-0.7-1.6-1.6-1.6c-0.7,0-1.3-0.6-1.3-1.3
        s0.6-1.3,1.3-1.3c0.9,0,1.6-0.7,1.6-1.6c0-0.9-0.7-1.6-1.6-1.6c-0.7,0-1.3-0.6-1.3-1.3s0.6-1.3,1.3-1.3c0.9,0,1.6-0.7,1.6-1.6
        c0-0.9-0.7-1.6-1.6-1.6c-0.7,0-1.3-0.6-1.3-1.3s0.6-1.3,1.3-1.3c2.4,0,4.3,1.9,4.3,4.3c0,1.2-0.5,2.2-1.2,3
        c0.7,0.8,1.2,1.8,1.2,3c0,1.2-0.5,2.2-1.2,3c0.7,0.8,1.2,1.8,1.2,3c0,2.4-1.9,4.3-4.3,4.3
        C1787.3,1658.6,1786.7,1658,1786.7,1657.3z"/>
      <path class="st42" d="M1796.1,1651.5c0-0.7,0.6-1.3,1.3-1.3c0.9,0,1.6-0.7,1.6-1.6c0-0.9-0.7-1.6-1.6-1.6c-0.7,0-1.3-0.6-1.3-1.3
        s0.6-1.3,1.3-1.3c0.9,0,1.6-0.7,1.6-1.6c0-0.9-0.7-1.6-1.6-1.6c-0.7,0-1.3-0.6-1.3-1.3c0-0.7,0.6-1.3,1.3-1.3
        c2.4,0,4.3,1.9,4.3,4.3c0,1.2-0.5,2.2-1.2,3c0.7,0.8,1.2,1.8,1.2,3c0,2.4-1.9,4.3-4.3,4.3
        C1796.7,1652.9,1796.1,1652.3,1796.1,1651.5z"/>
      <path class="st42" d="M1774.1,1663.1c4.3-4,6.8-9.6,6.8-15.5c0-4.6-1.5-9-4.3-12.7l-0.4-0.5c1-0.2,1.9-0.4,2.9-0.6
        c2.9,4,4.4,8.8,4.4,13.8c0,6.5-2.7,12.7-7.3,17.2c-0.8-0.4-1.7-0.9-2.5-1.4L1774.1,1663.1z"/>
    </g>
    <path class="st39" d="M1799.7,1658.8l-5,5c-1,1-1,2.7,0,3.7l2.9,2.9c4.7,4.7,12.4,4.7,17.1,0l0.1-0.1l-11.5-11.5
      C1802.3,1657.8,1800.7,1657.8,1799.7,1658.8z"/>
    <path class="st39" d="M1845.4,1621c-5.2-0.6-10.5,1.5-13.8,6c-3.4,4.4-3.9,10.1-2,14.9L1845.4,1621"/>
    <path class="st40" d="M1845.4,1662.8c-5.2,0.6-10.5-1.5-13.8-6c-3.4-4.4-3.9-10.1-2-14.9L1845.4,1662.8"/>
  </g>
  <g>
    <g>
      <path class="st39" d="M1746,1722l6.9-6.9l0.1,0.1c2.7,2.7,3.4,6.7,2.1,10c-0.4,1-0.9,1.9-1.7,2.7l-10.1-3.2L1746,1722z"/>
      <path class="st39" d="M1742.5,1691.8l0.2,0.2c7.3,7.3,7.3,19.1,0,26.4l-2.3,2.3l-2.9,2.9l-27.5,0.7L1742.5,1691.8z"/>
    </g>
    <g>
      <path class="st40" d="M1750.3,1723.4c1.6,0.6,3.2,1.2,4.7,1.9c-0.4,1-0.9,1.9-1.7,2.7l-10.1-3.2l2.7-2.7
        C1747.4,1722.4,1748.9,1722.9,1750.3,1723.4z"/>
      <path class="st40" d="M1714.2,1720.2c3.7-0.6,7.6-0.9,11.6-0.9c5.1,0,10,0.5,14.7,1.4l-2.9,2.9l-27.5,0.7L1714.2,1720.2z"/>
    </g>
    <path class="st41" d="M1689.7,1732.2c5.6-3.3,11.9-5.9,18.9-7.5c1-0.2,1.9-0.4,2.9-0.6c4.6-0.9,9.4-1.3,14.3-1.3
      c8.8,0,17.1,1.5,24.5,4.1c4.2,1.5,8,3.3,11.6,5.4c-4.6,15.6-19,27-36.1,27c-6.2,0-12.1-1.5-17.2-4.2c-0.8-0.4-1.7-0.9-2.5-1.4
      c-6-3.7-10.8-9-14-15.3"/>
    <path class="st42" d="M1692.1,1738.3c32.4,24.2,58.2-1.3,58.2-11.6v0c4.2,1.5,8,3.3,11.6,5.4c-4.6,15.6-19,27-36.1,27
      C1711,1759.2,1698.3,1750.7,1692.1,1738.3"/>
    <circle class="st5" cx="1703.5" cy="1737.6" r="4.5"/>
    <path class="st43" d="M1701.7,1737.9c-0.2-0.7,0.2-1.5,0.9-1.9c0.7-0.4,1.5-0.3,2.1,0.2c0.6,0.5,0.8,1.3,0.5,2
      c-0.3,0.7-0.9,1.1-1.7,1.1C1702.7,1739.4,1701.9,1738.7,1701.7,1737.9z"/>
    <g>
      <path class="st42" d="M1719,1747.5c0-0.7,0.6-1.3,1.3-1.3c0.9,0,1.6-0.7,1.6-1.6c0-0.9-0.7-1.6-1.6-1.6c-0.7,0-1.3-0.6-1.3-1.3
        s0.6-1.3,1.3-1.3c0.9,0,1.6-0.7,1.6-1.6c0-0.9-0.7-1.6-1.6-1.6c-0.7,0-1.3-0.6-1.3-1.3c0-0.7,0.6-1.3,1.3-1.3
        c0.9,0,1.6-0.7,1.6-1.6c0-0.9-0.7-1.6-1.6-1.6c-0.7,0-1.3-0.6-1.3-1.3c0-0.7,0.6-1.3,1.3-1.3c2.4,0,4.3,1.9,4.3,4.3
        c0,1.2-0.5,2.2-1.2,3c0.7,0.8,1.2,1.8,1.2,3c0,1.2-0.5,2.2-1.2,3c0.7,0.8,1.2,1.8,1.2,3c0,2.4-1.9,4.3-4.3,4.3
        C1719.7,1748.9,1719,1748.3,1719,1747.5z"/>
      <path class="st42" d="M1728.4,1741.8c0-0.7,0.6-1.3,1.3-1.3c0.9,0,1.6-0.7,1.6-1.6s-0.7-1.6-1.6-1.6c-0.7,0-1.3-0.6-1.3-1.3
        s0.6-1.3,1.3-1.3c0.9,0,1.6-0.7,1.6-1.6c0-0.9-0.7-1.6-1.6-1.6c-0.7,0-1.3-0.6-1.3-1.3s0.6-1.3,1.3-1.3c2.4,0,4.3,1.9,4.3,4.3
        c0,1.2-0.5,2.2-1.2,3c0.7,0.8,1.2,1.8,1.2,3c0,2.4-1.9,4.3-4.3,4.3C1729,1743.1,1728.4,1742.5,1728.4,1741.8z"/>
      <path class="st42" d="M1706.4,1753.3c4.3-4,6.8-9.6,6.8-15.5c0-4.6-1.5-9-4.3-12.7l-0.4-0.5c1-0.2,1.9-0.4,2.9-0.6
        c2.9,4,4.4,8.8,4.4,13.8c0,6.5-2.7,12.7-7.3,17.2c-0.8-0.4-1.7-0.9-2.5-1.4L1706.4,1753.3z"/>
    </g>
    <path class="st39" d="M1732,1749.1l-5,5c-1,1-1,2.7,0,3.7l2.9,2.9c4.7,4.7,12.4,4.7,17.1,0l0.1-0.1l-11.5-11.5
      C1734.6,1748,1733,1748,1732,1749.1z"/>
    <path class="st39" d="M1777.7,1711.3c-5.2-0.6-10.5,1.5-13.8,6c-3.4,4.4-3.9,10.1-2,14.9L1777.7,1711.3"/>
    <path class="st40" d="M1777.7,1753.1c-5.2,0.6-10.5-1.5-13.8-6c-3.4-4.4-3.9-10.1-2-14.9L1777.7,1753.1"/>
  </g>
  <g>
    <g>
      <path class="st39" d="M1720.3,1559.3l6.9-6.9l0.1,0.1c2.7,2.7,3.4,6.7,2.1,10c-0.4,1-0.9,1.9-1.7,2.7l-10.1-3.2L1720.3,1559.3z"
        />
      <path class="st39" d="M1716.9,1529.1l0.2,0.2c7.3,7.3,7.3,19.1,0,26.4l-2.3,2.3l-2.9,2.9l-27.5,0.7L1716.9,1529.1z"/>
    </g>
    <g>
      <path class="st40" d="M1724.6,1560.7c1.6,0.6,3.2,1.2,4.7,1.9c-0.4,1-0.9,1.9-1.7,2.7l-10.1-3.2l2.7-2.7
        C1721.8,1559.7,1723.2,1560.2,1724.6,1560.7z"/>
      <path class="st40" d="M1688.5,1557.5c3.7-0.6,7.6-0.9,11.6-0.9c5.1,0,10,0.5,14.7,1.4l-2.9,2.9l-27.5,0.7L1688.5,1557.5z"/>
    </g>
    <path class="st41" d="M1664,1569.5c5.6-3.3,11.9-5.9,18.9-7.5c1-0.2,1.9-0.4,2.9-0.6c4.6-0.9,9.4-1.3,14.3-1.3
      c8.8,0,17.1,1.5,24.5,4.1c4.2,1.5,8,3.3,11.6,5.4c-4.6,15.6-19,27-36.1,27c-6.2,0-12.1-1.5-17.2-4.2c-0.8-0.4-1.7-0.9-2.5-1.4
      c-6-3.7-10.8-9-14-15.3"/>
    <path class="st42" d="M1666.5,1575.7c32.4,24.2,58.2-1.3,58.2-11.6v0c4.2,1.5,8,3.3,11.6,5.4c-4.6,15.6-19,27-36.1,27
      C1685.4,1596.5,1672.6,1588,1666.5,1575.7"/>
    <circle class="st5" cx="1677.8" cy="1574.9" r="4.5"/>
    <path class="st43" d="M1676.1,1575.3c-0.2-0.7,0.2-1.5,0.9-1.9c0.7-0.4,1.5-0.3,2.1,0.2c0.6,0.5,0.8,1.3,0.5,2
      c-0.3,0.7-0.9,1.1-1.7,1.1C1677,1576.7,1676.2,1576.1,1676.1,1575.3z"/>
    <g>
      <path class="st42" d="M1693.4,1584.9c0-0.7,0.6-1.3,1.3-1.3c0.9,0,1.6-0.7,1.6-1.6c0-0.9-0.7-1.6-1.6-1.6c-0.7,0-1.3-0.6-1.3-1.3
        c0-0.7,0.6-1.3,1.3-1.3c0.9,0,1.6-0.7,1.6-1.6c0-0.9-0.7-1.6-1.6-1.6c-0.7,0-1.3-0.6-1.3-1.3c0-0.7,0.6-1.3,1.3-1.3
        c0.9,0,1.6-0.7,1.6-1.6s-0.7-1.6-1.6-1.6c-0.7,0-1.3-0.6-1.3-1.3s0.6-1.3,1.3-1.3c2.4,0,4.3,1.9,4.3,4.3c0,1.2-0.5,2.2-1.2,3
        c0.7,0.8,1.2,1.8,1.2,3c0,1.2-0.5,2.2-1.2,3c0.7,0.8,1.2,1.8,1.2,3c0,2.4-1.9,4.3-4.3,4.3
        C1694,1586.2,1693.4,1585.6,1693.4,1584.9z"/>
      <path class="st42" d="M1702.7,1579.1c0-0.7,0.6-1.3,1.3-1.3c0.9,0,1.6-0.7,1.6-1.6c0-0.9-0.7-1.6-1.6-1.6c-0.7,0-1.3-0.6-1.3-1.3
        s0.6-1.3,1.3-1.3c0.9,0,1.6-0.7,1.6-1.6c0-0.9-0.7-1.6-1.6-1.6c-0.7,0-1.3-0.6-1.3-1.3s0.6-1.3,1.3-1.3c2.4,0,4.3,1.9,4.3,4.3
        c0,1.2-0.5,2.2-1.2,3c0.7,0.8,1.2,1.8,1.2,3c0,2.4-1.9,4.3-4.3,4.3C1703.3,1580.5,1702.7,1579.8,1702.7,1579.1z"/>
      <path class="st42" d="M1680.7,1590.7c4.3-4,6.8-9.6,6.8-15.5c0-4.6-1.5-9-4.3-12.7l-0.4-0.5c1-0.2,1.9-0.4,2.9-0.6
        c2.9,4,4.4,8.8,4.4,13.8c0,6.5-2.7,12.7-7.3,17.2c-0.8-0.4-1.7-0.9-2.5-1.4L1680.7,1590.7z"/>
    </g>
    <path class="st39" d="M1706.3,1586.4l-5,5c-1,1-1,2.7,0,3.7l2.9,2.9c4.7,4.7,12.4,4.7,17.1,0l0.1-0.1l-11.5-11.5
      C1709,1585.4,1707.3,1585.4,1706.3,1586.4z"/>
    <path class="st39" d="M1752,1548.6c-5.2-0.6-10.5,1.5-13.8,6c-3.4,4.4-3.9,10.1-2,14.9L1752,1548.6"/>
    <path class="st40" d="M1752,1590.4c-5.2,0.6-10.5-1.5-13.8-6c-3.4-4.4-3.9-10.1-2-14.9L1752,1590.4"/>
  </g>
  <g>
    <g>
      <path class="st39" d="M1637.2,1618.8l6.9-6.9l0.1,0.1c2.7,2.7,3.4,6.7,2.1,10c-0.4,1-0.9,1.9-1.7,2.7l-10.1-3.2L1637.2,1618.8z"
        />
      <path class="st39" d="M1633.8,1588.6l0.2,0.2c7.3,7.3,7.3,19.1,0,26.4l-2.3,2.3l-2.9,2.9l-27.5,0.7L1633.8,1588.6z"/>
    </g>
    <g>
      <path class="st40" d="M1641.5,1620.2c1.6,0.6,3.2,1.2,4.7,1.9c-0.4,1-0.9,1.9-1.7,2.7l-10.1-3.2l2.7-2.7
        C1638.7,1619.2,1640.1,1619.7,1641.5,1620.2z"/>
      <path class="st40" d="M1605.4,1617c3.7-0.6,7.6-0.9,11.6-0.9c5.1,0,10,0.5,14.7,1.4l-2.9,2.9l-27.5,0.7L1605.4,1617z"/>
    </g>
    <path class="st41" d="M1580.9,1629c5.6-3.3,11.9-5.9,18.9-7.5c1-0.2,1.9-0.4,2.9-0.6c4.6-0.9,9.4-1.3,14.3-1.3
      c8.8,0,17.1,1.5,24.5,4.1c4.2,1.5,8,3.3,11.6,5.4c-4.6,15.6-19,27-36.1,27c-6.2,0-12.1-1.5-17.2-4.2c-0.8-0.4-1.7-0.9-2.5-1.4
      c-6-3.7-10.8-9-14-15.3"/>
    <path class="st42" d="M1583.3,1635.2c32.4,24.2,58.2-1.3,58.2-11.6v0c4.2,1.5,8,3.3,11.6,5.4c-4.6,15.6-19,27-36.1,27
      C1602.3,1656,1589.5,1647.5,1583.3,1635.2"/>
    <circle class="st5" cx="1594.7" cy="1634.4" r="4.5"/>
    <path class="st43" d="M1593,1634.7c-0.2-0.7,0.2-1.5,0.9-1.9c0.7-0.4,1.5-0.3,2.1,0.2c0.6,0.5,0.8,1.3,0.5,2
      c-0.3,0.7-0.9,1.1-1.7,1.1C1593.9,1636.2,1593.1,1635.6,1593,1634.7z"/>
    <g>
      <path class="st42" d="M1610.3,1644.4c0-0.7,0.6-1.3,1.3-1.3c0.9,0,1.6-0.7,1.6-1.6s-0.7-1.6-1.6-1.6c-0.7,0-1.3-0.6-1.3-1.3
        c0-0.7,0.6-1.3,1.3-1.3c0.9,0,1.6-0.7,1.6-1.6s-0.7-1.6-1.6-1.6c-0.7,0-1.3-0.6-1.3-1.3s0.6-1.3,1.3-1.3c0.9,0,1.6-0.7,1.6-1.6
        c0-0.9-0.7-1.6-1.6-1.6c-0.7,0-1.3-0.6-1.3-1.3s0.6-1.3,1.3-1.3c2.4,0,4.3,1.9,4.3,4.3c0,1.2-0.5,2.2-1.2,3
        c0.7,0.8,1.2,1.8,1.2,3c0,1.2-0.5,2.2-1.2,3c0.7,0.8,1.2,1.8,1.2,3c0,2.4-1.9,4.3-4.3,4.3
        C1610.9,1645.7,1610.3,1645.1,1610.3,1644.4z"/>
      <path class="st42" d="M1619.6,1638.6c0-0.7,0.6-1.3,1.3-1.3c0.9,0,1.6-0.7,1.6-1.6c0-0.9-0.7-1.6-1.6-1.6c-0.7,0-1.3-0.6-1.3-1.3
        s0.6-1.3,1.3-1.3c0.9,0,1.6-0.7,1.6-1.6c0-0.9-0.7-1.6-1.6-1.6c-0.7,0-1.3-0.6-1.3-1.3s0.6-1.3,1.3-1.3c2.4,0,4.3,1.9,4.3,4.3
        c0,1.2-0.5,2.2-1.2,3c0.7,0.8,1.2,1.8,1.2,3c0,2.4-1.9,4.3-4.3,4.3C1620.2,1639.9,1619.6,1639.3,1619.6,1638.6z"/>
      <path class="st42" d="M1597.6,1650.2c4.3-4,6.8-9.6,6.8-15.5c0-4.6-1.5-9-4.3-12.7l-0.4-0.5c1-0.2,1.9-0.4,2.9-0.6
        c2.9,4,4.4,8.8,4.4,13.8c0,6.5-2.7,12.7-7.3,17.2c-0.8-0.4-1.7-0.9-2.5-1.4L1597.6,1650.2z"/>
    </g>
    <path class="st39" d="M1623.2,1645.9l-5,5c-1,1-1,2.7,0,3.7l2.9,2.9c4.7,4.7,12.4,4.7,17.1,0l0.1-0.1l-11.5-11.5
      C1625.9,1644.9,1624.2,1644.9,1623.2,1645.9z"/>
    <path class="st39" d="M1668.9,1608.1c-5.2-0.6-10.5,1.5-13.8,6c-3.4,4.4-3.9,10.1-2,14.9L1668.9,1608.1"/>
    <path class="st40" d="M1668.9,1649.9c-5.2,0.6-10.5-1.5-13.8-6c-3.4-4.4-3.9-10.1-2-14.9L1668.9,1649.9"/>
  </g>
  <g>
    <g>
      <path class="st39" d="M1623.6,1742.3l6.9-6.9l0.1,0.1c2.7,2.7,3.4,6.7,2.1,10c-0.4,1-0.9,1.9-1.7,2.7l-10.1-3.2L1623.6,1742.3z"
        />
      <path class="st39" d="M1620.2,1712.1l0.2,0.2c7.3,7.3,7.3,19.1,0,26.4l-2.3,2.3l-2.9,2.9l-27.5,0.7L1620.2,1712.1z"/>
    </g>
    <g>
      <path class="st40" d="M1628,1743.6c1.6,0.6,3.2,1.2,4.7,1.9c-0.4,1-0.9,1.9-1.7,2.7l-10.1-3.2l2.7-2.7
        C1625.1,1742.7,1626.6,1743.1,1628,1743.6z"/>
      <path class="st40" d="M1591.9,1740.4c3.7-0.6,7.6-0.9,11.6-0.9c5.1,0,10,0.5,14.7,1.4l-2.9,2.9l-27.5,0.7L1591.9,1740.4z"/>
    </g>
    <path class="st41" d="M1567.4,1752.4c5.6-3.3,11.9-5.9,18.9-7.5c1-0.2,1.9-0.4,2.9-0.6c4.6-0.9,9.4-1.3,14.3-1.3
      c8.8,0,17.1,1.5,24.5,4.1c4.2,1.5,8,3.3,11.6,5.4c-4.6,15.6-19,27-36.1,27c-6.2,0-12.1-1.5-17.2-4.2c-0.8-0.4-1.7-0.9-2.5-1.4
      c-6-3.7-10.8-9-14-15.3"/>
    <path class="st42" d="M1569.8,1758.6c32.4,24.2,58.2-1.3,58.2-11.6v0c4.2,1.5,8,3.3,11.6,5.4c-4.6,15.6-19,27-36.1,27
      C1588.7,1779.5,1576,1771,1569.8,1758.6"/>
    <circle class="st5" cx="1581.2" cy="1757.9" r="4.5"/>
    <path class="st43" d="M1579.4,1758.2c-0.2-0.7,0.2-1.5,0.9-1.9c0.7-0.4,1.5-0.3,2.1,0.2c0.6,0.5,0.8,1.3,0.5,2
      c-0.3,0.7-0.9,1.1-1.7,1.1C1580.3,1759.6,1579.6,1759,1579.4,1758.2z"/>
    <g>
      <path class="st42" d="M1596.7,1767.8c0-0.7,0.6-1.3,1.3-1.3c0.9,0,1.6-0.7,1.6-1.6c0-0.9-0.7-1.6-1.6-1.6c-0.7,0-1.3-0.6-1.3-1.3
        c0-0.7,0.6-1.3,1.3-1.3c0.9,0,1.6-0.7,1.6-1.6s-0.7-1.6-1.6-1.6c-0.7,0-1.3-0.6-1.3-1.3s0.6-1.3,1.3-1.3c0.9,0,1.6-0.7,1.6-1.6
        c0-0.9-0.7-1.6-1.6-1.6c-0.7,0-1.3-0.6-1.3-1.3s0.6-1.3,1.3-1.3c2.4,0,4.3,1.9,4.3,4.3c0,1.2-0.5,2.2-1.2,3
        c0.7,0.8,1.2,1.8,1.2,3c0,1.2-0.5,2.2-1.2,3c0.7,0.8,1.2,1.8,1.2,3c0,2.4-1.9,4.3-4.3,4.3
        C1597.3,1769.2,1596.7,1768.6,1596.7,1767.8z"/>
      <path class="st42" d="M1606.1,1762c0-0.7,0.6-1.3,1.3-1.3c0.9,0,1.6-0.7,1.6-1.6c0-0.9-0.7-1.6-1.6-1.6c-0.7,0-1.3-0.6-1.3-1.3
        s0.6-1.3,1.3-1.3c0.9,0,1.6-0.7,1.6-1.6c0-0.9-0.7-1.6-1.6-1.6c-0.7,0-1.3-0.6-1.3-1.3s0.6-1.3,1.3-1.3c2.4,0,4.3,1.9,4.3,4.3
        c0,1.2-0.5,2.2-1.2,3c0.7,0.8,1.2,1.8,1.2,3c0,2.4-1.9,4.3-4.3,4.3C1606.7,1763.4,1606.1,1762.8,1606.1,1762z"/>
      <path class="st42" d="M1584.1,1773.6c4.3-4,6.8-9.6,6.8-15.5c0-4.6-1.5-9-4.3-12.7l-0.4-0.5c1-0.2,1.9-0.4,2.9-0.6
        c2.9,4,4.4,8.8,4.4,13.8c0,6.5-2.7,12.7-7.3,17.2c-0.8-0.4-1.7-0.9-2.5-1.4L1584.1,1773.6z"/>
    </g>
    <path class="st39" d="M1609.7,1769.3l-5,5c-1,1-1,2.7,0,3.7l2.9,2.9c4.7,4.7,12.4,4.7,17.1,0l0.1-0.1l-11.5-11.5
      C1612.3,1768.3,1610.7,1768.3,1609.7,1769.3z"/>
    <path class="st39" d="M1655.4,1731.6c-5.2-0.6-10.5,1.5-13.8,6c-3.4,4.4-3.9,10.1-2,14.9L1655.4,1731.6"/>
    <path class="st40" d="M1655.4,1773.3c-5.2,0.6-10.5-1.5-13.8-6c-3.4-4.4-3.9-10.1-2-14.9L1655.4,1773.3"/>
  </g>
  <g>
    <g>
      <path class="st39" d="M1583.8,1523.1l6.9-6.9l0.1,0.1c2.7,2.7,3.4,6.7,2.1,10c-0.4,1-0.9,1.9-1.7,2.7l-10.1-3.2L1583.8,1523.1z"
        />
      <path class="st39" d="M1580.4,1492.9l0.2,0.2c7.3,7.3,7.3,19.1,0,26.4l-2.3,2.3l-2.9,2.9l-27.5,0.7L1580.4,1492.9z"/>
    </g>
    <g>
      <path class="st40" d="M1588.2,1524.5c1.6,0.6,3.2,1.2,4.7,1.9c-0.4,1-0.9,1.9-1.7,2.7l-10.1-3.2l2.7-2.7
        C1585.3,1523.5,1586.8,1524,1588.2,1524.5z"/>
      <path class="st40" d="M1552.1,1521.3c3.7-0.6,7.6-0.9,11.6-0.9c5.1,0,10,0.5,14.7,1.4l-2.9,2.9l-27.5,0.7L1552.1,1521.3z"/>
    </g>
    <path class="st41" d="M1527.6,1533.3c5.6-3.3,11.9-5.9,18.9-7.5c1-0.2,1.9-0.4,2.9-0.6c4.6-0.9,9.4-1.3,14.3-1.3
      c8.8,0,17.1,1.5,24.5,4.1c4.2,1.5,8,3.3,11.6,5.4c-4.6,15.6-19,27-36.1,27c-6.2,0-12.1-1.5-17.2-4.2c-0.8-0.4-1.7-0.9-2.5-1.4
      c-6-3.7-10.8-9-14-15.3"/>
    <path class="st42" d="M1530,1539.5c32.4,24.2,58.2-1.3,58.2-11.6v0c4.2,1.5,8,3.3,11.6,5.4c-4.6,15.6-19,27-36.1,27
      C1548.9,1560.3,1536.2,1551.8,1530,1539.5"/>
    <circle class="st5" cx="1541.4" cy="1538.7" r="4.5"/>
    <path class="st43" d="M1539.6,1539.1c-0.2-0.7,0.2-1.5,0.9-1.9c0.7-0.4,1.5-0.3,2.1,0.2c0.6,0.5,0.8,1.3,0.5,2
      c-0.3,0.7-0.9,1.1-1.7,1.1C1540.5,1540.5,1539.8,1539.9,1539.6,1539.1z"/>
    <g>
      <path class="st42" d="M1556.9,1548.7c0-0.7,0.6-1.3,1.3-1.3c0.9,0,1.6-0.7,1.6-1.6s-0.7-1.6-1.6-1.6c-0.7,0-1.3-0.6-1.3-1.3
        s0.6-1.3,1.3-1.3c0.9,0,1.6-0.7,1.6-1.6c0-0.9-0.7-1.6-1.6-1.6c-0.7,0-1.3-0.6-1.3-1.3s0.6-1.3,1.3-1.3c0.9,0,1.6-0.7,1.6-1.6
        c0-0.9-0.7-1.6-1.6-1.6c-0.7,0-1.3-0.6-1.3-1.3s0.6-1.3,1.3-1.3c2.4,0,4.3,1.9,4.3,4.3c0,1.2-0.5,2.2-1.2,3
        c0.7,0.8,1.2,1.8,1.2,3c0,1.2-0.5,2.2-1.2,3c0.7,0.8,1.2,1.8,1.2,3c0,2.4-1.9,4.3-4.3,4.3
        C1557.5,1550,1556.9,1549.4,1556.9,1548.7z"/>
      <path class="st42" d="M1566.3,1542.9c0-0.7,0.6-1.3,1.3-1.3c0.9,0,1.6-0.7,1.6-1.6c0-0.9-0.7-1.6-1.6-1.6c-0.7,0-1.3-0.6-1.3-1.3
        s0.6-1.3,1.3-1.3c0.9,0,1.6-0.7,1.6-1.6c0-0.9-0.7-1.6-1.6-1.6c-0.7,0-1.3-0.6-1.3-1.3c0-0.7,0.6-1.3,1.3-1.3
        c2.4,0,4.3,1.9,4.3,4.3c0,1.2-0.5,2.2-1.2,3c0.7,0.8,1.2,1.8,1.2,3c0,2.4-1.9,4.3-4.3,4.3
        C1566.9,1544.2,1566.3,1543.6,1566.3,1542.9z"/>
      <path class="st42" d="M1544.3,1554.5c4.3-4,6.8-9.6,6.8-15.5c0-4.6-1.5-9-4.3-12.7l-0.4-0.5c1-0.2,1.9-0.4,2.9-0.6
        c2.9,4,4.4,8.8,4.4,13.8c0,6.5-2.7,12.7-7.3,17.2c-0.8-0.4-1.7-0.9-2.5-1.4L1544.3,1554.5z"/>
    </g>
    <path class="st39" d="M1569.9,1550.2l-5,5c-1,1-1,2.7,0,3.7l2.9,2.9c4.7,4.7,12.4,4.7,17.1,0l0.1-0.1l-11.5-11.5
      C1572.5,1549.2,1570.9,1549.2,1569.9,1550.2z"/>
    <path class="st39" d="M1615.6,1512.4c-5.2-0.6-10.5,1.5-13.8,6c-3.4,4.4-3.9,10.1-2,14.9L1615.6,1512.4"/>
    <path class="st40" d="M1615.6,1554.2c-5.2,0.6-10.5-1.5-13.8-6c-3.4-4.4-3.9-10.1-2-14.9L1615.6,1554.2"/>
  </g>
  <g>
    <g>
      <path class="st39" d="M1531.4,1671.4l6.9-6.9l0.1,0.1c2.7,2.7,3.4,6.7,2.1,10c-0.4,1-0.9,1.9-1.7,2.7l-10.1-3.2L1531.4,1671.4z"
        />
      <path class="st39" d="M1528,1641.2l0.2,0.2c7.3,7.3,7.3,19.1,0,26.4l-2.3,2.3l-2.9,2.9l-27.5,0.7L1528,1641.2z"/>
    </g>
    <g>
      <path class="st40" d="M1535.7,1672.8c1.6,0.6,3.2,1.2,4.7,1.9c-0.4,1-0.9,1.9-1.7,2.7l-10.1-3.2l2.7-2.7
        C1532.9,1671.8,1534.3,1672.3,1535.7,1672.8z"/>
      <path class="st40" d="M1499.6,1669.6c3.7-0.6,7.6-0.9,11.6-0.9c5.1,0,10,0.5,14.7,1.4l-2.9,2.9l-27.5,0.7L1499.6,1669.6z"/>
    </g>
    <path class="st41" d="M1475.1,1681.6c5.6-3.3,11.9-5.9,18.9-7.5c1-0.2,1.9-0.4,2.9-0.6c4.6-0.9,9.4-1.3,14.3-1.3
      c8.8,0,17.1,1.5,24.5,4.1c4.2,1.5,8,3.3,11.6,5.4c-4.6,15.6-19,27-36.1,27c-6.2,0-12.1-1.5-17.2-4.2c-0.8-0.4-1.7-0.9-2.5-1.4
      c-6-3.7-10.8-9-14-15.3"/>
    <path class="st42" d="M1477.5,1687.8c32.4,24.2,58.2-1.3,58.2-11.6v0c4.2,1.5,8,3.3,11.6,5.4c-4.6,15.6-19,27-36.1,27
      C1496.5,1708.6,1483.7,1700.1,1477.5,1687.8"/>
    <circle class="st5" cx="1488.9" cy="1687" r="4.5"/>
    <path class="st43" d="M1487.2,1687.3c-0.2-0.7,0.2-1.5,0.9-1.9c0.7-0.4,1.5-0.3,2.1,0.2c0.6,0.5,0.8,1.3,0.5,2
      c-0.3,0.7-0.9,1.1-1.7,1.1C1488.1,1688.8,1487.3,1688.2,1487.2,1687.3z"/>
    <g>
      <path class="st42" d="M1504.5,1697c0-0.7,0.6-1.3,1.3-1.3c0.9,0,1.6-0.7,1.6-1.6c0-0.9-0.7-1.6-1.6-1.6c-0.7,0-1.3-0.6-1.3-1.3
        s0.6-1.3,1.3-1.3c0.9,0,1.6-0.7,1.6-1.6c0-0.9-0.7-1.6-1.6-1.6c-0.7,0-1.3-0.6-1.3-1.3c0-0.7,0.6-1.3,1.3-1.3
        c0.9,0,1.6-0.7,1.6-1.6c0-0.9-0.7-1.6-1.6-1.6c-0.7,0-1.3-0.6-1.3-1.3c0-0.7,0.6-1.3,1.3-1.3c2.4,0,4.3,1.9,4.3,4.3
        c0,1.2-0.5,2.2-1.2,3c0.7,0.8,1.2,1.8,1.2,3c0,1.2-0.5,2.2-1.2,3c0.7,0.8,1.2,1.8,1.2,3c0,2.4-1.9,4.3-4.3,4.3
        C1505.1,1698.3,1504.5,1697.7,1504.5,1697z"/>
      <path class="st42" d="M1513.8,1691.2c0-0.7,0.6-1.3,1.3-1.3c0.9,0,1.6-0.7,1.6-1.6s-0.7-1.6-1.6-1.6c-0.7,0-1.3-0.6-1.3-1.3
        s0.6-1.3,1.3-1.3c0.9,0,1.6-0.7,1.6-1.6c0-0.9-0.7-1.6-1.6-1.6c-0.7,0-1.3-0.6-1.3-1.3s0.6-1.3,1.3-1.3c2.4,0,4.3,1.9,4.3,4.3
        c0,1.2-0.5,2.2-1.2,3c0.7,0.8,1.2,1.8,1.2,3c0,2.4-1.9,4.3-4.3,4.3C1514.4,1692.5,1513.8,1691.9,1513.8,1691.2z"/>
      <path class="st42" d="M1491.8,1702.8c4.3-4,6.8-9.6,6.8-15.5c0-4.6-1.5-9-4.3-12.7l-0.4-0.5c1-0.2,1.9-0.4,2.9-0.6
        c2.9,4,4.4,8.8,4.4,13.8c0,6.5-2.7,12.7-7.3,17.2c-0.8-0.4-1.7-0.9-2.5-1.4L1491.8,1702.8z"/>
    </g>
    <path class="st39" d="M1517.4,1698.5l-5,5c-1,1-1,2.7,0,3.7l2.9,2.9c4.7,4.7,12.4,4.7,17.1,0l0.1-0.1l-11.5-11.5
      C1520.1,1697.5,1518.4,1697.5,1517.4,1698.5z"/>
    <path class="st39" d="M1563.1,1660.7c-5.2-0.6-10.5,1.5-13.8,6c-3.4,4.4-3.9,10.1-2,14.9L1563.1,1660.7"/>
    <path class="st40" d="M1563.1,1702.5c-5.2,0.6-10.5-1.5-13.8-6c-3.4-4.4-3.9-10.1-2-14.9L1563.1,1702.5"/>
  </g>
  <g>
    <g>
      <path class="st39" d="M1711.4,1665.1l6.9-6.9l0.1,0.1c2.7,2.7,3.4,6.7,2.1,10c-0.4,1-0.9,1.9-1.7,2.7l-10.1-3.2L1711.4,1665.1z"
        />
      <path class="st39" d="M1707.9,1634.9l0.2,0.2c7.3,7.3,7.3,19.1,0,26.4l-2.3,2.3l-2.9,2.9l-27.5,0.7L1707.9,1634.9z"/>
    </g>
    <g>
      <path class="st40" d="M1715.7,1666.4c1.6,0.6,3.2,1.2,4.7,1.9c-0.4,1-0.9,1.9-1.7,2.7l-10.1-3.2l2.7-2.7
        C1712.8,1665.5,1714.3,1665.9,1715.7,1666.4z"/>
      <path class="st40" d="M1679.6,1663.2c3.7-0.6,7.6-0.9,11.6-0.9c5.1,0,10,0.5,14.7,1.4l-2.9,2.9l-27.5,0.7L1679.6,1663.2z"/>
    </g>
    <path class="st41" d="M1655.1,1675.2c5.6-3.3,11.9-5.9,18.9-7.5c1-0.2,1.9-0.4,2.9-0.6c4.6-0.9,9.4-1.3,14.3-1.3
      c8.8,0,17.1,1.5,24.5,4.1c4.2,1.5,8,3.3,11.6,5.4c-4.6,15.6-19,27-36.1,27c-6.2,0-12.1-1.5-17.2-4.2c-0.8-0.4-1.7-0.9-2.5-1.4
      c-6-3.7-10.8-9-14-15.3"/>
    <path class="st42" d="M1657.5,1681.4c32.4,24.2,58.2-1.3,58.2-11.6v0c4.2,1.5,8,3.3,11.6,5.4c-4.6,15.6-19,27-36.1,27
      C1676.4,1702.3,1663.7,1693.8,1657.5,1681.4"/>
    <circle class="st5" cx="1668.9" cy="1680.7" r="4.5"/>
    <path class="st43" d="M1667.1,1681c-0.2-0.7,0.2-1.5,0.9-1.9c0.7-0.4,1.5-0.3,2.1,0.2c0.6,0.5,0.8,1.3,0.5,2
      c-0.3,0.7-0.9,1.1-1.7,1.1C1668,1682.4,1667.3,1681.8,1667.1,1681z"/>
    <g>
      <path class="st42" d="M1684.4,1690.6c0-0.7,0.6-1.3,1.3-1.3c0.9,0,1.6-0.7,1.6-1.6c0-0.9-0.7-1.6-1.6-1.6c-0.7,0-1.3-0.6-1.3-1.3
        c0-0.7,0.6-1.3,1.3-1.3c0.9,0,1.6-0.7,1.6-1.6c0-0.9-0.7-1.6-1.6-1.6c-0.7,0-1.3-0.6-1.3-1.3c0-0.7,0.6-1.3,1.3-1.3
        c0.9,0,1.6-0.7,1.6-1.6s-0.7-1.6-1.6-1.6c-0.7,0-1.3-0.6-1.3-1.3s0.6-1.3,1.3-1.3c2.4,0,4.3,1.9,4.3,4.3c0,1.2-0.5,2.2-1.2,3
        c0.7,0.8,1.2,1.8,1.2,3c0,1.2-0.5,2.2-1.2,3c0.7,0.8,1.2,1.8,1.2,3c0,2.4-1.9,4.3-4.3,4.3C1685,1692,1684.4,1691.4,1684.4,1690.6
        z"/>
      <path class="st42" d="M1693.8,1684.8c0-0.7,0.6-1.3,1.3-1.3c0.9,0,1.6-0.7,1.6-1.6c0-0.9-0.7-1.6-1.6-1.6c-0.7,0-1.3-0.6-1.3-1.3
        s0.6-1.3,1.3-1.3c0.9,0,1.6-0.7,1.6-1.6c0-0.9-0.7-1.6-1.6-1.6c-0.7,0-1.3-0.6-1.3-1.3s0.6-1.3,1.3-1.3c2.4,0,4.3,1.9,4.3,4.3
        c0,1.2-0.5,2.2-1.2,3c0.7,0.8,1.2,1.8,1.2,3c0,2.4-1.9,4.3-4.3,4.3C1694.4,1686.2,1693.8,1685.6,1693.8,1684.8z"/>
      <path class="st42" d="M1671.8,1696.4c4.3-4,6.8-9.6,6.8-15.5c0-4.6-1.5-9-4.3-12.7l-0.4-0.5c1-0.2,1.9-0.4,2.9-0.6
        c2.9,4,4.4,8.8,4.4,13.8c0,6.5-2.7,12.7-7.3,17.2c-0.8-0.4-1.7-0.9-2.5-1.4L1671.8,1696.4z"/>
    </g>
    <path class="st39" d="M1697.4,1692.1l-5,5c-1,1-1,2.7,0,3.7l2.9,2.9c4.7,4.7,12.4,4.7,17.1,0l0.1-0.1l-11.5-11.5
      C1700,1691.1,1698.4,1691.1,1697.4,1692.1z"/>
    <path class="st39" d="M1743.1,1654.4c-5.2-0.6-10.5,1.5-13.8,6c-3.4,4.4-3.9,10.1-2,14.9L1743.1,1654.4"/>
    <path class="st40" d="M1743.1,1696.1c-5.2,0.6-10.5-1.5-13.8-6c-3.4-4.4-3.9-10.1-2-14.9L1743.1,1696.1"/>
  </g>
</g>


<g class='fishy1'>
  <path class="st44" d="M1699,2438.7l11.7,23.5c1.4,2.7,3.6,5,6.3,6.3c4.4,2.2,9.5,2,13.7-0.5c4.2-2.5,6.7-7,6.8-11.8L1699,2438.7z"
    />
  <path class="st45" d="M1750.2,2362.5l47.6,51.6l3.8-42.6c0.4-4.8-1.3-9.6-4.7-12.9c-4-4-9.6-5.6-15.1-4.4L1750.2,2362.5z"/>
  <path class="st44" d="M1745.7,2462.3l1.9,1.6c5.2,6.8,13,10.5,20.9,10.5c5,0,10-1.5,14.5-4.4c6.6-4.4,10.8-11.5,11.5-19.4l2.2-23.9
    L1745.7,2462.3z"/>
  <path class="st45" d="M1797,2408.3c4.6-2.8,9.8-6.5,13.2-10.7l6.1-7.7c1.2-1.6,3.4-2.1,5.1-1.3c1.8,0.9,2.8,2.8,2.5,4.7l-4.2,25.1
    l-4.4,26.5c-0.3,1.8-1.6,3.2-3.4,3.5c-1.8,0.3-3.5-0.4-4.5-2l-6.2-9.9c-1.3-2.2-2.9-4.3-4.7-6.1l-5.3-12.1l-1.9-4.3L1797,2408.3z"
    />
  <path class="st44" d="M1815.3,2444.9c-0.3,1.8-1.6,3.2-3.4,3.5c-1.8,0.3-3.5-0.4-4.5-2l-6.2-9.9c-1.3-2.2-2.9-4.3-4.7-6.1
    l-5.3-12.1h28.5L1815.3,2444.9z"/>
  <path class="st46" d="M1683.2,2407.1c10.8-1.1,19.7-15.9,22.2-21.8c7.9-15.8,20.6-20.9,31.4-22.4l4.5,27.1
    c-1.5,9.4-2,18.9-1.7,28.3c0.2,6.5,0.8,13.2,1.7,19.7l-5.3,22.3c-9.6-2.5-19.3-6.9-27.9-13c-5.2-3.5-8-7.2-10.7-10.4
    c-3.6-4.5-6.6-7.8-14.6-9.9c-3.6-0.9-5.9-4.3-6.1-8.7c-0.1-0.7-0.1-1.5,0-2.2C1677.1,2411,1679.7,2407.5,1683.2,2407.1z"/>
  <path class="st45" d="M1676.8,2418.4l62.8,0c0.2,6.5,0.8,13.2,1.7,19.7l-5.3,22.3c-9.6-2.5-19.3-6.9-27.9-13
    c-5.2-3.5-8-7.2-10.7-10.4c-3.6-4.5-6.6-7.8-14.6-9.9C1679.3,2426.2,1677,2422.8,1676.8,2418.4L1676.8,2418.4z"/>
  <circle class="st47" cx="1716.1" cy="2409.8" r="4.3"/>
  <path class="st48" d="M1732.9,2388.8l4-25.8c4.8-0.6,8.9-0.6,13.4-0.4c2.3,0.1,2.9,0.1,3.8,0.1l4.5,27.5c-1.5,9.4-2,18.9-1.7,28.3
    c0.2,6.5,0.8,13.2,1.7,19.7l-4.9,24.5c-2.6,0-5.2-0.1-7.9-0.4c-0.5,0-4.8-0.6-9.6-1.8l-3.2-21c-1-7-1.7-14-1.9-21
    C1730.7,2408.5,1731.3,2398.6,1732.9,2388.8z"/>
  <path class="st49" d="M1731,2418.4h25.8c0.2,6.5,0.8,13.2,1.7,19.7l-4.9,24.5c-2.6,0-5.2-0.1-7.9-0.4c-0.5,0-4.8-0.6-9.6-1.8
    l-3.2-21C1731.8,2432.5,1731.1,2425.4,1731,2418.4L1731,2418.4z"/>
  <path class="st46" d="M1750.1,2388.8l4-26.2c4.6-0.1,9.7-0.3,16.9,2.6l4.8,24.9c-1.5,9.4-2,18.9-1.7,28.3
    c0.2,6.5,0.8,13.2,1.7,19.7l-5.3,21.8c-5.3,1.9-11.1,2.8-16.8,2.8l-3.5-23.3c-1-7-1.7-14-1.9-21
    C1747.9,2408.5,1748.5,2398.6,1750.1,2388.8z"/>
  <path class="st45" d="M1775.7,2438.1l-5.3,21.8c-5.3,1.9-11.1,2.8-16.8,2.8l-3.5-23.3c-1-7-1.7-14-1.9-21h25.8
    C1774.2,2425,1774.8,2431.6,1775.7,2438.1z"/>
  <path class="st48" d="M1767.3,2388.8l3.6-23.6c18.2,7.6,27,28.8,27,48.9v0.5c0,1.3,0,2.6-0.2,3.8c-0.1,2.9-0.4,5.7-0.9,8.3
    c-2.8,15.8-11.4,27.9-26.4,33.2l-3.1-20.5c-1-7-1.7-14-1.9-21C1765.1,2408.5,1765.8,2398.6,1767.3,2388.8z"/>
  <path class="st49" d="M1796.8,2426.7c-2.8,15.8-11.4,27.9-26.4,33.2l-3.1-20.5c-1-7-1.7-14-1.9-21h32.3
    C1797.6,2421.4,1797.3,2424.1,1796.8,2426.7z"/>
</g>





<g class='fishy2'>
  <g>
    <g>
      <path class="st39" d="M22.9,2208.8l-10.1,3.2c-0.7-0.8-1.3-1.7-1.7-2.7c-1.3-3.3-0.7-7.3,2.1-10l0.1-0.1l6.9,6.9L22.9,2208.8z"/>
      <path class="st39" d="M56.1,2208.5l-27.5-0.7l-2.9-2.9l-2.3-2.3c-7.3-7.3-7.3-19.1,0-26.4l0.2-0.2L56.1,2208.5z"/>
    </g>
    <g>
      <path class="st40" d="M20.2,2206.1l2.7,2.7l-10.1,3.2c-0.7-0.8-1.3-1.7-1.7-2.7c1.5-0.7,3.1-1.3,4.7-1.9
        C17.3,2207,18.7,2206.5,20.2,2206.1z"/>
      <path class="st40" d="M56.1,2208.5l-27.5-0.7l-2.9-2.9c4.7-0.9,9.6-1.4,14.7-1.4c4,0,7.9,0.3,11.6,0.9L56.1,2208.5z"/>
    </g>
    <path class="st41" d="M74,2222.5c-3.1,6.3-8,11.6-14,15.3c-0.8,0.5-1.6,1-2.5,1.4c-5.2,2.7-11,4.2-17.2,4.2
      c-17.1,0-31.5-11.4-36.1-27c3.6-2.1,7.4-3.9,11.6-5.4c7.4-2.6,15.7-4.1,24.5-4.1c4.9,0,9.7,0.5,14.3,1.3c1,0.2,1.9,0.4,2.9,0.6
      c6.9,1.6,13.3,4.2,18.9,7.5"/>
    <path class="st42" d="M74,2222.5c-6.2,12.3-18.9,20.8-33.7,20.8c-17.1,0-31.5-11.4-36.1-27c3.6-2.1,7.4-3.9,11.6-5.4v0
      C15.9,2221.2,41.6,2246.6,74,2222.5"/>
    <circle class="st5" cx="62.7" cy="2221.7" r="4.5"/>
    <path class="st43" d="M62.7,2223.5c-0.7,0-1.4-0.5-1.7-1.1c-0.3-0.7-0.1-1.5,0.5-2c0.6-0.5,1.4-0.6,2.1-0.2c0.7,0.4,1,1.2,0.9,1.9
      C64.2,2222.9,63.5,2223.5,62.7,2223.5z"/>
    <g>
      <path class="st42" d="M45.8,2233c-2.4,0-4.3-1.9-4.3-4.3c0-1.2,0.5-2.2,1.2-3c-0.7-0.8-1.2-1.8-1.2-3s0.5-2.2,1.2-3
        c-0.7-0.8-1.2-1.8-1.2-3c0-2.4,1.9-4.3,4.3-4.3c0.7,0,1.3,0.6,1.3,1.3s-0.6,1.3-1.3,1.3c-0.9,0-1.6,0.7-1.6,1.6
        c0,0.9,0.7,1.6,1.6,1.6c0.7,0,1.3,0.6,1.3,1.3c0,0.7-0.6,1.3-1.3,1.3c-0.9,0-1.6,0.7-1.6,1.6c0,0.9,0.7,1.6,1.6,1.6
        c0.7,0,1.3,0.6,1.3,1.3c0,0.7-0.6,1.3-1.3,1.3c-0.9,0-1.6,0.7-1.6,1.6c0,0.9,0.7,1.6,1.6,1.6c0.7,0,1.3,0.6,1.3,1.3
        S46.5,2233,45.8,2233z"/>
      <path class="st42" d="M36.4,2227.2c-2.4,0-4.3-1.9-4.3-4.3c0-1.2,0.5-2.2,1.2-3c-0.7-0.8-1.2-1.8-1.2-3c0-2.4,1.9-4.3,4.3-4.3
        c0.7,0,1.3,0.6,1.3,1.3s-0.6,1.3-1.3,1.3c-0.9,0-1.6,0.7-1.6,1.6c0,0.9,0.7,1.6,1.6,1.6c0.7,0,1.3,0.6,1.3,1.3s-0.6,1.3-1.3,1.3
        c-0.9,0-1.6,0.7-1.6,1.6c0,0.9,0.7,1.6,1.6,1.6c0.7,0,1.3,0.6,1.3,1.3S37.2,2227.2,36.4,2227.2z"/>
      <path class="st42" d="M60.1,2237.7c-0.8,0.5-1.6,1-2.5,1.4c-4.7-4.5-7.3-10.7-7.3-17.2c0-5,1.5-9.8,4.4-13.8
        c1,0.2,1.9,0.4,2.9,0.6l-0.4,0.5c-2.8,3.7-4.3,8.1-4.3,12.7c0,5.9,2.5,11.5,6.8,15.5L60.1,2237.7z"/>
    </g>
    <path class="st39" d="M30.5,2233.2L19,2244.7l0.1,0.1c4.7,4.7,12.4,4.7,17.1,0l2.9-2.9c1-1,1-2.7,0-3.7l-5-5
      C33.2,2232.2,31.5,2232.2,30.5,2233.2z"/>
    <path class="st39" d="M-11.5,2195.4l15.8,20.9c1.9-4.8,1.4-10.5-2-14.9C-1.1,2196.9-6.4,2194.8-11.5,2195.4"/>
    <path class="st40" d="M-11.5,2237.2l15.8-20.9c1.9,4.8,1.4,10.5-2,14.9C-1.1,2235.7-6.4,2237.7-11.5,2237.2"/>
  </g>
  <g>
    <g>
      <path class="st39" d="M90.6,2299.1l-10.1,3.2c-0.7-0.8-1.3-1.7-1.7-2.7c-1.3-3.3-0.7-7.3,2.1-10l0.1-0.1l6.9,6.9L90.6,2299.1z"/>
      <path class="st39" d="M123.8,2298.7l-27.5-0.7l-2.9-2.9l-2.3-2.3c-7.3-7.3-7.3-19.1,0-26.4l0.2-0.2L123.8,2298.7z"/>
    </g>
    <g>
      <path class="st40" d="M87.9,2296.4l2.7,2.7l-10.1,3.2c-0.7-0.8-1.3-1.7-1.7-2.7c1.5-0.7,3.1-1.3,4.7-1.9
        C85,2297.2,86.4,2296.8,87.9,2296.4z"/>
      <path class="st40" d="M123.8,2298.7l-27.5-0.7l-2.9-2.9c4.7-0.9,9.6-1.4,14.7-1.4c4,0,7.9,0.3,11.6,0.9L123.8,2298.7z"/>
    </g>
    <path class="st41" d="M141.7,2312.7c-3.1,6.3-8,11.6-14,15.3c-0.8,0.5-1.6,1-2.5,1.4c-5.2,2.7-11,4.2-17.2,4.2
      c-17.1,0-31.5-11.4-36.1-27c3.6-2.1,7.4-3.9,11.6-5.4c7.4-2.6,15.7-4.1,24.5-4.1c4.9,0,9.7,0.5,14.3,1.3c1,0.2,1.9,0.4,2.9,0.6
      c6.9,1.6,13.3,4.2,18.9,7.5"/>
    <path class="st42" d="M141.7,2312.7c-6.2,12.3-18.9,20.8-33.7,20.8c-17.1,0-31.5-11.4-36.1-27c3.6-2.1,7.4-3.9,11.6-5.4v0
      C83.5,2311.5,109.3,2336.9,141.7,2312.7"/>
    <circle class="st5" cx="130.3" cy="2311.9" r="4.5"/>
    <path class="st43" d="M130.3,2313.7c-0.7,0-1.4-0.5-1.7-1.1c-0.3-0.7-0.1-1.5,0.5-2c0.6-0.5,1.4-0.6,2.1-0.2
      c0.7,0.4,1,1.2,0.9,1.9C131.9,2313.1,131.2,2313.7,130.3,2313.7z"/>
    <g>
      <path class="st42" d="M113.4,2323.3c-2.4,0-4.3-1.9-4.3-4.3c0-1.2,0.5-2.2,1.2-3c-0.7-0.8-1.2-1.8-1.2-3s0.5-2.2,1.2-3
        c-0.7-0.8-1.2-1.8-1.2-3c0-2.4,1.9-4.3,4.3-4.3c0.7,0,1.3,0.6,1.3,1.3s-0.6,1.3-1.3,1.3c-0.9,0-1.6,0.7-1.6,1.6
        c0,0.9,0.7,1.6,1.6,1.6c0.7,0,1.3,0.6,1.3,1.3s-0.6,1.3-1.3,1.3c-0.9,0-1.6,0.7-1.6,1.6c0,0.9,0.7,1.6,1.6,1.6
        c0.7,0,1.3,0.6,1.3,1.3s-0.6,1.3-1.3,1.3c-0.9,0-1.6,0.7-1.6,1.6c0,0.9,0.7,1.6,1.6,1.6c0.7,0,1.3,0.6,1.3,1.3
        S114.2,2323.3,113.4,2323.3z"/>
      <path class="st42" d="M104.1,2317.5c-2.4,0-4.3-1.9-4.3-4.3c0-1.2,0.5-2.2,1.2-3c-0.7-0.8-1.2-1.8-1.2-3c0-2.4,1.9-4.3,4.3-4.3
        c0.7,0,1.3,0.6,1.3,1.3s-0.6,1.3-1.3,1.3c-0.9,0-1.6,0.7-1.6,1.6c0,0.9,0.7,1.6,1.6,1.6c0.7,0,1.3,0.6,1.3,1.3
        c0,0.7-0.6,1.3-1.3,1.3c-0.9,0-1.6,0.7-1.6,1.6c0,0.9,0.7,1.6,1.6,1.6c0.7,0,1.3,0.6,1.3,1.3
        C105.4,2316.9,104.8,2317.5,104.1,2317.5z"/>
      <path class="st42" d="M127.7,2328c-0.8,0.5-1.6,1-2.5,1.4c-4.7-4.5-7.3-10.7-7.3-17.2c0-5,1.5-9.8,4.4-13.8
        c1,0.2,1.9,0.4,2.9,0.6l-0.4,0.5c-2.8,3.7-4.3,8.1-4.3,12.7c0,5.9,2.5,11.5,6.8,15.5L127.7,2328z"/>
    </g>
    <path class="st39" d="M98.2,2323.4l-11.5,11.5l0.1,0.1c4.7,4.7,12.4,4.7,17.1,0l2.9-2.9c1-1,1-2.7,0-3.7l-5-5
      C100.8,2322.4,99.2,2322.4,98.2,2323.4z"/>
    <path class="st39" d="M56.1,2285.6l15.8,20.9c1.9-4.8,1.4-10.5-2-14.9C66.6,2287.2,61.3,2285.1,56.1,2285.6"/>
    <path class="st40" d="M56.1,2327.4l15.8-20.9c1.9,4.8,1.4,10.5-2,14.9C66.6,2325.9,61.3,2328,56.1,2327.4"/>
  </g>
  <g>
    <g>
      <path class="st39" d="M116.2,2136.4l-10.1,3.2c-0.7-0.8-1.3-1.7-1.7-2.7c-1.3-3.3-0.7-7.3,2.1-10l0.1-0.1l6.9,6.9L116.2,2136.4z"
        />
      <path class="st39" d="M149.5,2136l-27.5-0.7l-2.9-2.9l-2.3-2.3c-7.3-7.3-7.3-19.1,0-26.4l0.2-0.2L149.5,2136z"/>
    </g>
    <g>
      <path class="st40" d="M113.5,2133.7l2.7,2.7l-10.1,3.2c-0.7-0.8-1.3-1.7-1.7-2.7c1.5-0.7,3.1-1.3,4.7-1.9
        C110.6,2134.6,112.1,2134.1,113.5,2133.7z"/>
      <path class="st40" d="M149.5,2136l-27.5-0.7l-2.9-2.9c4.7-0.9,9.6-1.4,14.7-1.4c4,0,7.9,0.3,11.6,0.9L149.5,2136z"/>
    </g>
    <path class="st41" d="M167.4,2150.1c-3.1,6.3-8,11.6-14,15.3c-0.8,0.5-1.6,1-2.5,1.4c-5.2,2.7-11,4.2-17.2,4.2
      c-17.1,0-31.5-11.4-36.1-27c3.6-2.1,7.4-3.9,11.6-5.4c7.4-2.6,15.7-4.1,24.5-4.1c4.9,0,9.7,0.5,14.3,1.3c1,0.2,1.9,0.4,2.9,0.6
      c6.9,1.6,13.3,4.2,18.9,7.5"/>
    <path class="st42" d="M167.4,2150.1c-6.2,12.3-18.9,20.8-33.7,20.8c-17.1,0-31.5-11.4-36.1-27c3.6-2.1,7.4-3.9,11.6-5.4v0
      C109.2,2148.8,134.9,2174.2,167.4,2150.1"/>
    <circle class="st5" cx="156" cy="2149.3" r="4.5"/>
    <path class="st43" d="M156,2151.1c-0.7,0-1.4-0.5-1.7-1.1c-0.3-0.7-0.1-1.5,0.5-2c0.6-0.5,1.4-0.6,2.1-0.2c0.7,0.4,1,1.2,0.9,1.9
      C157.6,2150.5,156.8,2151.1,156,2151.1z"/>
    <g>
      <path class="st42" d="M139.1,2160.6c-2.4,0-4.3-1.9-4.3-4.3c0-1.2,0.5-2.2,1.2-3c-0.7-0.8-1.2-1.8-1.2-3c0-1.2,0.5-2.2,1.2-3
        c-0.7-0.8-1.2-1.8-1.2-3c0-2.4,1.9-4.3,4.3-4.3c0.7,0,1.3,0.6,1.3,1.3s-0.6,1.3-1.3,1.3c-0.9,0-1.6,0.7-1.6,1.6
        c0,0.9,0.7,1.6,1.6,1.6c0.7,0,1.3,0.6,1.3,1.3s-0.6,1.3-1.3,1.3c-0.9,0-1.6,0.7-1.6,1.6c0,0.9,0.7,1.6,1.6,1.6
        c0.7,0,1.3,0.6,1.3,1.3s-0.6,1.3-1.3,1.3c-0.9,0-1.6,0.7-1.6,1.6c0,0.9,0.7,1.6,1.6,1.6c0.7,0,1.3,0.6,1.3,1.3
        S139.8,2160.6,139.1,2160.6z"/>
      <path class="st42" d="M129.8,2154.8c-2.4,0-4.3-1.9-4.3-4.3c0-1.2,0.5-2.2,1.2-3c-0.7-0.8-1.2-1.8-1.2-3c0-2.4,1.9-4.3,4.3-4.3
        c0.7,0,1.3,0.6,1.3,1.3s-0.6,1.3-1.3,1.3c-0.9,0-1.6,0.7-1.6,1.6c0,0.9,0.7,1.6,1.6,1.6c0.7,0,1.3,0.6,1.3,1.3s-0.6,1.3-1.3,1.3
        c-0.9,0-1.6,0.7-1.6,1.6c0,0.9,0.7,1.6,1.6,1.6c0.7,0,1.3,0.6,1.3,1.3C131.1,2154.2,130.5,2154.8,129.8,2154.8z"/>
      <path class="st42" d="M153.4,2165.3c-0.8,0.5-1.6,1-2.5,1.4c-4.7-4.5-7.3-10.7-7.3-17.2c0-5,1.5-9.8,4.4-13.8
        c1,0.2,1.9,0.4,2.9,0.6l-0.4,0.5c-2.8,3.7-4.3,8.1-4.3,12.7c0,5.9,2.5,11.5,6.8,15.5L153.4,2165.3z"/>
    </g>
    <path class="st39" d="M123.8,2160.8l-11.5,11.5l0.1,0.1c4.7,4.7,12.4,4.7,17.1,0l2.9-2.9c1-1,1-2.7,0-3.7l-5-5
      C126.5,2159.8,124.9,2159.8,123.8,2160.8z"/>
    <path class="st39" d="M81.8,2123l15.8,20.9c1.9-4.8,1.4-10.5-2-14.9C92.3,2124.5,87,2122.4,81.8,2123"/>
    <path class="st40" d="M81.8,2164.8l15.8-20.9c1.9,4.8,1.4,10.5-2,14.9C92.3,2163.2,87,2165.3,81.8,2164.8"/>
  </g>
  <g>
    <g>
      <path class="st39" d="M199.4,2195.9l-10.1,3.2c-0.7-0.8-1.3-1.7-1.7-2.7c-1.3-3.3-0.7-7.3,2.1-10l0.1-0.1l6.9,6.9L199.4,2195.9z"
        />
      <path class="st39" d="M232.6,2195.5l-27.5-0.7l-2.9-2.9l-2.3-2.3c-7.3-7.3-7.3-19.1,0-26.4l0.2-0.2L232.6,2195.5z"/>
    </g>
    <g>
      <path class="st40" d="M196.6,2193.2l2.7,2.7l-10.1,3.2c-0.7-0.8-1.3-1.7-1.7-2.7c1.5-0.7,3.1-1.3,4.7-1.9
        C193.7,2194.1,195.2,2193.6,196.6,2193.2z"/>
      <path class="st40" d="M232.6,2195.5l-27.5-0.7l-2.9-2.9c4.7-0.9,9.6-1.4,14.7-1.4c4,0,7.9,0.3,11.6,0.9L232.6,2195.5z"/>
    </g>
    <path class="st41" d="M250.5,2209.5c-3.1,6.3-8,11.6-14,15.3c-0.8,0.5-1.6,1-2.5,1.4c-5.2,2.7-11,4.2-17.2,4.2
      c-17.1,0-31.5-11.4-36.1-27c3.6-2.1,7.4-3.9,11.6-5.4c7.4-2.6,15.7-4.1,24.5-4.1c4.9,0,9.7,0.5,14.3,1.3c1,0.2,1.9,0.4,2.9,0.6
      c6.9,1.6,13.3,4.2,18.9,7.5"/>
    <path class="st42" d="M250.5,2209.5c-6.2,12.3-18.9,20.8-33.7,20.8c-17.1,0-31.5-11.4-36.1-27c3.6-2.1,7.4-3.9,11.6-5.4v0
      C192.3,2208.3,218,2233.7,250.5,2209.5"/>
    <circle class="st5" cx="239.1" cy="2208.8" r="4.5"/>
    <path class="st43" d="M239.1,2210.6c-0.7,0-1.4-0.5-1.7-1.1c-0.3-0.7-0.1-1.5,0.5-2c0.6-0.5,1.4-0.6,2.1-0.2
      c0.7,0.4,1,1.2,0.9,1.9C240.7,2209.9,240,2210.6,239.1,2210.6z"/>
    <g>
      <path class="st42" d="M222.2,2220.1c-2.4,0-4.3-1.9-4.3-4.3c0-1.2,0.5-2.2,1.2-3c-0.7-0.8-1.2-1.8-1.2-3s0.5-2.2,1.2-3
        c-0.7-0.8-1.2-1.8-1.2-3c0-2.4,1.9-4.3,4.3-4.3c0.7,0,1.3,0.6,1.3,1.3s-0.6,1.3-1.3,1.3c-0.9,0-1.6,0.7-1.6,1.6
        c0,0.9,0.7,1.6,1.6,1.6c0.7,0,1.3,0.6,1.3,1.3c0,0.7-0.6,1.3-1.3,1.3c-0.9,0-1.6,0.7-1.6,1.6c0,0.9,0.7,1.6,1.6,1.6
        c0.7,0,1.3,0.6,1.3,1.3c0,0.7-0.6,1.3-1.3,1.3c-0.9,0-1.6,0.7-1.6,1.6c0,0.9,0.7,1.6,1.6,1.6c0.7,0,1.3,0.6,1.3,1.3
        S223,2220.1,222.2,2220.1z"/>
      <path class="st42" d="M212.9,2214.3c-2.4,0-4.3-1.9-4.3-4.3c0-1.2,0.5-2.2,1.2-3c-0.7-0.8-1.2-1.8-1.2-3c0-2.4,1.9-4.3,4.3-4.3
        c0.7,0,1.3,0.6,1.3,1.3s-0.6,1.3-1.3,1.3c-0.9,0-1.6,0.7-1.6,1.6c0,0.9,0.7,1.6,1.6,1.6c0.7,0,1.3,0.6,1.3,1.3s-0.6,1.3-1.3,1.3
        c-0.9,0-1.6,0.7-1.6,1.6s0.7,1.6,1.6,1.6c0.7,0,1.3,0.6,1.3,1.3S213.6,2214.3,212.9,2214.3z"/>
      <path class="st42" d="M236.5,2224.8c-0.8,0.5-1.6,1-2.5,1.4c-4.7-4.5-7.3-10.7-7.3-17.2c0-5,1.5-9.8,4.4-13.8
        c1,0.2,1.9,0.4,2.9,0.6l-0.4,0.5c-2.8,3.7-4.3,8.1-4.3,12.7c0,5.9,2.5,11.5,6.8,15.5L236.5,2224.8z"/>
    </g>
    <path class="st39" d="M206.9,2220.3l-11.5,11.5l0.1,0.1c4.7,4.7,12.4,4.7,17.1,0l2.9-2.9c1-1,1-2.7,0-3.7l-5-5
      C209.6,2219.2,208,2219.2,206.9,2220.3z"/>
    <path class="st39" d="M164.9,2182.5l15.8,20.9c1.9-4.8,1.4-10.5-2-14.9C175.4,2184,170.1,2181.9,164.9,2182.5"/>
    <path class="st40" d="M164.9,2224.3l15.8-20.9c1.9,4.8,1.4,10.5-2,14.9C175.4,2222.7,170.1,2224.8,164.9,2224.3"/>
  </g>
  <g>
    <g>
      <path class="st39" d="M212.9,2319.4l-10.1,3.2c-0.7-0.8-1.3-1.7-1.7-2.7c-1.3-3.3-0.7-7.3,2.1-10l0.1-0.1l6.9,6.9L212.9,2319.4z"
        />
      <path class="st39" d="M246.1,2319l-27.5-0.7l-2.9-2.9l-2.3-2.3c-7.3-7.3-7.3-19.1,0-26.4l0.2-0.2L246.1,2319z"/>
    </g>
    <g>
      <path class="st40" d="M210.2,2316.7l2.7,2.7l-10.1,3.2c-0.7-0.8-1.3-1.7-1.7-2.7c1.5-0.7,3.1-1.3,4.7-1.9
        C207.3,2317.5,208.7,2317.1,210.2,2316.7z"/>
      <path class="st40" d="M246.1,2319l-27.5-0.7l-2.9-2.9c4.7-0.9,9.6-1.4,14.7-1.4c4,0,7.9,0.3,11.6,0.9L246.1,2319z"/>
    </g>
    <path class="st41" d="M264,2333c-3.1,6.3-8,11.6-14,15.3c-0.8,0.5-1.6,1-2.5,1.4c-5.2,2.7-11,4.2-17.2,4.2
      c-17.1,0-31.5-11.4-36.1-27c3.6-2.1,7.4-3.9,11.6-5.4c7.4-2.6,15.7-4.1,24.5-4.1c4.9,0,9.7,0.5,14.3,1.3c1,0.2,1.9,0.4,2.9,0.6
      c6.9,1.6,13.3,4.2,18.9,7.5"/>
    <path class="st42" d="M264,2333c-6.2,12.3-18.9,20.8-33.7,20.8c-17.1,0-31.5-11.4-36.1-27c3.6-2.1,7.4-3.9,11.6-5.4v0
      C205.9,2331.7,231.6,2357.2,264,2333"/>
    <circle class="st5" cx="252.6" cy="2332.2" r="4.5"/>
    <path class="st43" d="M252.6,2334c-0.7,0-1.4-0.5-1.7-1.1c-0.3-0.7-0.1-1.5,0.5-2c0.6-0.5,1.4-0.6,2.1-0.2c0.7,0.4,1,1.2,0.9,1.9
      C254.2,2333.4,253.5,2334,252.6,2334z"/>
    <g>
      <path class="st42" d="M235.8,2343.6c-2.4,0-4.3-1.9-4.3-4.3c0-1.2,0.5-2.2,1.2-3c-0.7-0.8-1.2-1.8-1.2-3s0.5-2.2,1.2-3
        c-0.7-0.8-1.2-1.8-1.2-3c0-2.4,1.9-4.3,4.3-4.3c0.7,0,1.3,0.6,1.3,1.3c0,0.7-0.6,1.3-1.3,1.3c-0.9,0-1.6,0.7-1.6,1.6
        c0,0.9,0.7,1.6,1.6,1.6c0.7,0,1.3,0.6,1.3,1.3c0,0.7-0.6,1.3-1.3,1.3c-0.9,0-1.6,0.7-1.6,1.6c0,0.9,0.7,1.6,1.6,1.6
        c0.7,0,1.3,0.6,1.3,1.3s-0.6,1.3-1.3,1.3c-0.9,0-1.6,0.7-1.6,1.6c0,0.9,0.7,1.6,1.6,1.6c0.7,0,1.3,0.6,1.3,1.3
        S236.5,2343.6,235.8,2343.6z"/>
      <path class="st42" d="M226.4,2337.8c-2.4,0-4.3-1.9-4.3-4.3c0-1.2,0.5-2.2,1.2-3c-0.7-0.8-1.2-1.8-1.2-3c0-2.4,1.9-4.3,4.3-4.3
        c0.7,0,1.3,0.6,1.3,1.3s-0.6,1.3-1.3,1.3c-0.9,0-1.6,0.7-1.6,1.6c0,0.9,0.7,1.6,1.6,1.6c0.7,0,1.3,0.6,1.3,1.3s-0.6,1.3-1.3,1.3
        c-0.9,0-1.6,0.7-1.6,1.6s0.7,1.6,1.6,1.6c0.7,0,1.3,0.6,1.3,1.3S227.2,2337.8,226.4,2337.8z"/>
      <path class="st42" d="M250.1,2348.3c-0.8,0.5-1.6,1-2.5,1.4c-4.7-4.5-7.3-10.7-7.3-17.2c0-5,1.5-9.8,4.4-13.8
        c1,0.2,1.9,0.4,2.9,0.6l-0.4,0.5c-2.8,3.7-4.3,8.1-4.3,12.7c0,5.9,2.5,11.5,6.8,15.5L250.1,2348.3z"/>
    </g>
    <path class="st39" d="M220.5,2343.7l-11.5,11.5l0.1,0.1c4.7,4.7,12.4,4.7,17.1,0l2.9-2.9c1-1,1-2.7,0-3.7l-5-5
      C223.2,2342.7,221.5,2342.7,220.5,2343.7z"/>
    <path class="st39" d="M178.5,2305.9l15.8,20.9c1.9-4.8,1.4-10.5-2-14.9C188.9,2307.5,183.6,2305.4,178.5,2305.9"/>
    <path class="st40" d="M178.5,2347.7l15.8-20.9c1.9,4.8,1.4,10.5-2,14.9C188.9,2346.2,183.6,2348.3,178.5,2347.7"/>
  </g>
  <g>
    <g>
      <path class="st39" d="M252.7,2100.2l-10.1,3.2c-0.7-0.8-1.3-1.7-1.7-2.7c-1.3-3.3-0.7-7.3,2.1-10l0.1-0.1l6.9,6.9L252.7,2100.2z"
        />
      <path class="st39" d="M285.9,2099.8l-27.5-0.7l-2.9-2.9l-2.3-2.3c-7.3-7.3-7.3-19.1,0-26.4l0.2-0.2L285.9,2099.8z"/>
    </g>
    <g>
      <path class="st40" d="M250,2097.5l2.7,2.7l-10.1,3.2c-0.7-0.8-1.3-1.7-1.7-2.7c1.5-0.7,3.1-1.3,4.7-1.9
        C247.1,2098.4,248.5,2097.9,250,2097.5z"/>
      <path class="st40" d="M285.9,2099.8l-27.5-0.7l-2.9-2.9c4.7-0.9,9.6-1.4,14.7-1.4c4,0,7.9,0.3,11.6,0.9L285.9,2099.8z"/>
    </g>
    <path class="st41" d="M303.8,2113.9c-3.1,6.3-8,11.6-14,15.3c-0.8,0.5-1.6,1-2.5,1.4c-5.2,2.7-11,4.2-17.2,4.2
      c-17.1,0-31.5-11.4-36.1-27c3.6-2.1,7.4-3.9,11.6-5.4c7.4-2.6,15.7-4.1,24.5-4.1c4.9,0,9.7,0.5,14.3,1.3c1,0.2,1.9,0.4,2.9,0.6
      c6.9,1.6,13.3,4.2,18.9,7.5"/>
    <path class="st42" d="M303.8,2113.9c-6.2,12.3-18.9,20.8-33.7,20.8c-17.1,0-31.5-11.4-36.1-27c3.6-2.1,7.4-3.9,11.6-5.4v0
      C245.7,2112.6,271.4,2138,303.8,2113.9"/>
    <circle class="st5" cx="292.5" cy="2113.1" r="4.5"/>
    <path class="st43" d="M292.5,2114.9c-0.7,0-1.4-0.5-1.7-1.1c-0.3-0.7-0.1-1.5,0.5-2c0.6-0.5,1.4-0.6,2.1-0.2
      c0.7,0.4,1,1.2,0.9,1.9C294,2114.3,293.3,2114.9,292.5,2114.9z"/>
    <g>
      <path class="st42" d="M275.6,2124.4c-2.4,0-4.3-1.9-4.3-4.3c0-1.2,0.5-2.2,1.2-3c-0.7-0.8-1.2-1.8-1.2-3c0-1.2,0.5-2.2,1.2-3
        c-0.7-0.8-1.2-1.8-1.2-3c0-2.4,1.9-4.3,4.3-4.3c0.7,0,1.3,0.6,1.3,1.3s-0.6,1.3-1.3,1.3c-0.9,0-1.6,0.7-1.6,1.6
        c0,0.9,0.7,1.6,1.6,1.6c0.7,0,1.3,0.6,1.3,1.3s-0.6,1.3-1.3,1.3c-0.9,0-1.6,0.7-1.6,1.6c0,0.9,0.7,1.6,1.6,1.6
        c0.7,0,1.3,0.6,1.3,1.3s-0.6,1.3-1.3,1.3c-0.9,0-1.6,0.7-1.6,1.6c0,0.9,0.7,1.6,1.6,1.6c0.7,0,1.3,0.6,1.3,1.3
        S276.3,2124.4,275.6,2124.4z"/>
      <path class="st42" d="M266.2,2118.6c-2.4,0-4.3-1.9-4.3-4.3c0-1.2,0.5-2.2,1.2-3c-0.7-0.8-1.2-1.8-1.2-3c0-2.4,1.9-4.3,4.3-4.3
        c0.7,0,1.3,0.6,1.3,1.3s-0.6,1.3-1.3,1.3c-0.9,0-1.6,0.7-1.6,1.6c0,0.9,0.7,1.6,1.6,1.6c0.7,0,1.3,0.6,1.3,1.3s-0.6,1.3-1.3,1.3
        c-0.9,0-1.6,0.7-1.6,1.6c0,0.9,0.7,1.6,1.6,1.6c0.7,0,1.3,0.6,1.3,1.3S267,2118.6,266.2,2118.6z"/>
      <path class="st42" d="M289.9,2129.1c-0.8,0.5-1.6,1-2.5,1.4c-4.7-4.5-7.3-10.7-7.3-17.2c0-5,1.5-9.8,4.4-13.8
        c1,0.2,1.9,0.4,2.9,0.6l-0.4,0.5c-2.8,3.7-4.3,8.1-4.3,12.7c0,5.9,2.5,11.5,6.8,15.5L289.9,2129.1z"/>
    </g>
    <path class="st39" d="M260.3,2124.6l-11.5,11.5l0.1,0.1c4.7,4.7,12.4,4.7,17.1,0l2.9-2.9c1-1,1-2.7,0-3.7l-5-5
      C263,2123.6,261.3,2123.6,260.3,2124.6z"/>
    <path class="st39" d="M218.3,2086.8l15.8,20.9c1.9-4.8,1.4-10.5-2-14.9C228.7,2088.3,223.4,2086.2,218.3,2086.8"/>
    <path class="st40" d="M218.3,2128.6l15.8-20.9c1.9,4.8,1.4,10.5-2,14.9C228.7,2127,223.4,2129.1,218.3,2128.6"/>
  </g>
  <g>
    <g>
      <path class="st39" d="M305.1,2248.5l-10.1,3.2c-0.7-0.8-1.3-1.7-1.7-2.7c-1.3-3.3-0.7-7.3,2.1-10l0.1-0.1l6.9,6.9L305.1,2248.5z"
        />
      <path class="st39" d="M338.4,2248.1l-27.5-0.7l-2.9-2.9l-2.3-2.3c-7.3-7.3-7.3-19.1,0-26.4l0.2-0.2L338.4,2248.1z"/>
    </g>
    <g>
      <path class="st40" d="M302.4,2245.8l2.7,2.7l-10.1,3.2c-0.7-0.8-1.3-1.7-1.7-2.7c1.5-0.7,3.1-1.3,4.7-1.9
        C299.5,2246.7,301,2246.2,302.4,2245.8z"/>
      <path class="st40" d="M338.4,2248.1l-27.5-0.7l-2.9-2.9c4.7-0.9,9.6-1.4,14.7-1.4c4,0,7.9,0.3,11.6,0.9L338.4,2248.1z"/>
    </g>
    <path class="st41" d="M356.3,2262.1c-3.1,6.3-8,11.6-14,15.3c-0.8,0.5-1.6,1-2.5,1.4c-5.2,2.7-11,4.2-17.2,4.2
      c-17.1,0-31.5-11.4-36.1-27c3.6-2.1,7.4-3.9,11.6-5.4c7.4-2.6,15.7-4.1,24.5-4.1c4.9,0,9.7,0.5,14.3,1.3c1,0.2,1.9,0.4,2.9,0.6
      c6.9,1.6,13.3,4.2,18.9,7.5"/>
    <path class="st42" d="M356.3,2262.1c-6.2,12.3-18.9,20.8-33.7,20.8c-17.1,0-31.5-11.4-36.1-27c3.6-2.1,7.4-3.9,11.6-5.4v0
      C298.1,2260.9,323.8,2286.3,356.3,2262.1"/>
    <circle class="st5" cx="344.9" cy="2261.4" r="4.5"/>
    <path class="st43" d="M344.9,2263.2c-0.7,0-1.4-0.5-1.7-1.1c-0.3-0.7-0.1-1.5,0.5-2c0.6-0.5,1.4-0.6,2.1-0.2
      c0.7,0.4,1,1.2,0.9,1.9C346.5,2262.5,345.8,2263.2,344.9,2263.2z"/>
    <g>
      <path class="st42" d="M328,2272.7c-2.4,0-4.3-1.9-4.3-4.3c0-1.2,0.5-2.2,1.2-3c-0.7-0.8-1.2-1.8-1.2-3s0.5-2.2,1.2-3
        c-0.7-0.8-1.2-1.8-1.2-3c0-2.4,1.9-4.3,4.3-4.3c0.7,0,1.3,0.6,1.3,1.3s-0.6,1.3-1.3,1.3c-0.9,0-1.6,0.7-1.6,1.6
        c0,0.9,0.7,1.6,1.6,1.6c0.7,0,1.3,0.6,1.3,1.3s-0.6,1.3-1.3,1.3c-0.9,0-1.6,0.7-1.6,1.6c0,0.9,0.7,1.6,1.6,1.6
        c0.7,0,1.3,0.6,1.3,1.3s-0.6,1.3-1.3,1.3c-0.9,0-1.6,0.7-1.6,1.6c0,0.9,0.7,1.6,1.6,1.6c0.7,0,1.3,0.6,1.3,1.3
        S328.8,2272.7,328,2272.7z"/>
      <path class="st42" d="M318.7,2266.9c-2.4,0-4.3-1.9-4.3-4.3c0-1.2,0.5-2.2,1.2-3c-0.7-0.8-1.2-1.8-1.2-3c0-2.4,1.9-4.3,4.3-4.3
        c0.7,0,1.3,0.6,1.3,1.3s-0.6,1.3-1.3,1.3c-0.9,0-1.6,0.7-1.6,1.6c0,0.9,0.7,1.6,1.6,1.6c0.7,0,1.3,0.6,1.3,1.3
        c0,0.7-0.6,1.3-1.3,1.3c-0.9,0-1.6,0.7-1.6,1.6c0,0.9,0.7,1.6,1.6,1.6c0.7,0,1.3,0.6,1.3,1.3
        C320,2266.3,319.4,2266.9,318.7,2266.9z"/>
      <path class="st42" d="M342.3,2277.4c-0.8,0.5-1.6,1-2.5,1.4c-4.7-4.5-7.3-10.7-7.3-17.2c0-5,1.5-9.8,4.4-13.8
        c1,0.2,1.9,0.4,2.9,0.6l-0.4,0.5c-2.8,3.7-4.3,8.1-4.3,12.7c0,5.9,2.5,11.5,6.8,15.5L342.3,2277.4z"/>
    </g>
    <path class="st39" d="M312.7,2272.9l-11.5,11.5l0.1,0.1c4.7,4.7,12.4,4.7,17.1,0l2.9-2.9c1-1,1-2.7,0-3.7l-5-5
      C315.4,2271.8,313.8,2271.8,312.7,2272.9z"/>
    <path class="st39" d="M270.7,2235.1l15.8,20.9c1.9-4.8,1.4-10.5-2-14.9C281.2,2236.6,275.9,2234.5,270.7,2235.1"/>
    <path class="st40" d="M270.7,2276.9l15.8-20.9c1.9,4.8,1.4,10.5-2,14.9C281.2,2275.3,275.9,2277.4,270.7,2276.9"/>
  </g>
  <g>
    <g>
      <path class="st39" d="M125.2,2242.2l-10.1,3.2c-0.7-0.8-1.3-1.7-1.7-2.7c-1.3-3.3-0.7-7.3,2.1-10l0.1-0.1l6.9,6.9L125.2,2242.2z"
        />
      <path class="st39" d="M158.4,2241.8l-27.5-0.7l-2.9-2.9l-2.3-2.3c-7.3-7.3-7.3-19.1,0-26.4l0.2-0.2L158.4,2241.8z"/>
    </g>
    <g>
      <path class="st40" d="M122.5,2239.5l2.7,2.7l-10.1,3.2c-0.7-0.8-1.3-1.7-1.7-2.7c1.5-0.7,3.1-1.3,4.7-1.9
        C119.6,2240.3,121,2239.9,122.5,2239.5z"/>
      <path class="st40" d="M158.4,2241.8l-27.5-0.7l-2.9-2.9c4.7-0.9,9.6-1.4,14.7-1.4c4,0,7.9,0.3,11.6,0.9L158.4,2241.8z"/>
    </g>
    <path class="st41" d="M176.3,2255.8c-3.1,6.3-8,11.6-14,15.3c-0.8,0.5-1.6,1-2.5,1.4c-5.2,2.7-11,4.2-17.2,4.2
      c-17.1,0-31.5-11.4-36.1-27c3.6-2.1,7.4-3.9,11.6-5.4c7.4-2.6,15.7-4.1,24.5-4.1c4.9,0,9.7,0.5,14.3,1.3c1,0.2,1.9,0.4,2.9,0.6
      c6.9,1.6,13.3,4.2,18.9,7.5"/>
    <path class="st42" d="M176.3,2255.8c-6.2,12.3-18.9,20.8-33.7,20.8c-17.1,0-31.5-11.4-36.1-27c3.6-2.1,7.4-3.9,11.6-5.4v0
      C118.2,2254.5,143.9,2280,176.3,2255.8"/>
    <circle class="st5" cx="164.9" cy="2255" r="4.5"/>
    <path class="st43" d="M164.9,2256.8c-0.7,0-1.4-0.5-1.7-1.1c-0.3-0.7-0.1-1.5,0.5-2c0.6-0.5,1.4-0.6,2.1-0.2
      c0.7,0.4,1,1.2,0.9,1.9C166.5,2256.2,165.8,2256.8,164.9,2256.8z"/>
    <g>
      <path class="st42" d="M148.1,2266.4c-2.4,0-4.3-1.9-4.3-4.3c0-1.2,0.5-2.2,1.2-3c-0.7-0.8-1.2-1.8-1.2-3c0-1.2,0.5-2.2,1.2-3
        c-0.7-0.8-1.2-1.8-1.2-3c0-2.4,1.9-4.3,4.3-4.3c0.7,0,1.3,0.6,1.3,1.3s-0.6,1.3-1.3,1.3c-0.9,0-1.6,0.7-1.6,1.6
        c0,0.9,0.7,1.6,1.6,1.6c0.7,0,1.3,0.6,1.3,1.3s-0.6,1.3-1.3,1.3c-0.9,0-1.6,0.7-1.6,1.6c0,0.9,0.7,1.6,1.6,1.6
        c0.7,0,1.3,0.6,1.3,1.3s-0.6,1.3-1.3,1.3c-0.9,0-1.6,0.7-1.6,1.6c0,0.9,0.7,1.6,1.6,1.6c0.7,0,1.3,0.6,1.3,1.3
        S148.8,2266.4,148.1,2266.4z"/>
      <path class="st42" d="M138.7,2260.6c-2.4,0-4.3-1.9-4.3-4.3c0-1.2,0.5-2.2,1.2-3c-0.7-0.8-1.2-1.8-1.2-3c0-2.4,1.9-4.3,4.3-4.3
        c0.7,0,1.3,0.6,1.3,1.3s-0.6,1.3-1.3,1.3c-0.9,0-1.6,0.7-1.6,1.6c0,0.9,0.7,1.6,1.6,1.6c0.7,0,1.3,0.6,1.3,1.3s-0.6,1.3-1.3,1.3
        c-0.9,0-1.6,0.7-1.6,1.6c0,0.9,0.7,1.6,1.6,1.6c0.7,0,1.3,0.6,1.3,1.3C140.1,2260,139.5,2260.6,138.7,2260.6z"/>
      <path class="st42" d="M162.4,2271.1c-0.8,0.5-1.6,1-2.5,1.4c-4.7-4.5-7.3-10.7-7.3-17.2c0-5,1.5-9.8,4.4-13.8
        c1,0.2,1.9,0.4,2.9,0.6l-0.4,0.5c-2.8,3.7-4.3,8.1-4.3,12.7c0,5.9,2.5,11.5,6.8,15.5L162.4,2271.1z"/>
    </g>
    <path class="st39" d="M132.8,2266.5l-11.5,11.5l0.1,0.1c4.7,4.7,12.4,4.7,17.1,0l2.9-2.9c1-1,1-2.7,0-3.7l-5-5
      C135.5,2265.5,133.8,2265.5,132.8,2266.5z"/>
    <path class="st39" d="M90.8,2228.7l15.8,20.9c1.9-4.8,1.4-10.5-2-14.9C101.2,2230.3,95.9,2228.2,90.8,2228.7"/>
    <path class="st40" d="M90.8,2270.5l15.8-20.9c1.9,4.8,1.4,10.5-2,14.9C101.2,2269,95.9,2271.1,90.8,2270.5"/>
  </g>
</g>
<g class='sun'  viewBox="0 0 200 200">
  <g>
    <polygon class="st50" points="1683.5,75.9 1643.7,77.8 1669.4,108.4    "/>
    <polygon class="st50" points="1812.2,132.1 1798,164.6 1837.8,162.6    "/>
    <polygon class="st50" points="1716.7,49.8 1682.2,29.2 1686.1,68.2     "/>
    <polygon class="st50" points="1847.4,101.3 1808.9,90.1 1816.2,125     "/>
    <polygon class="st50" points="1813.3,46 1775.3,57.2 1800.9,82.9     "/>
    <polygon class="st50" points="1745.9,16.5 1727.3,50.7 1763.5,52     "/>
    <polygon class="st50" points="1633.7,140.3 1672.3,151.4 1665,116.5    "/>
    <polygon class="st50" points="1798.9,212.4 1795.1,173.3 1764.5,191.7    "/>
    <polygon class="st50" points="1753.8,190.7 1717.6,189.4 1735.1,225    "/>
    <polygon class="st50" points="1705.7,184.3 1680.2,158.6 1667.7,195.6    "/>
    
      <ellipse transform="matrix(0.4003 -0.9164 0.9164 0.4003 932.9913 1666.7938)" class="st50" cx="1740" cy="120.6" rx="58.9" ry="60.6"/>
  </g>
  
    <rect x="1626.7" y="24" transform="matrix(0.9164 0.4003 -0.4003 0.9164 196.7808 -686.3893)" class="st51" width="229.3" height="207.7"/>
</g>
</svg>