<?xml version="1.0" encoding="utf-8"?>
<!-- Generator: Adobe Illustrator 22.1.0, SVG Export Plug-In . SVG Version: 6.00 Build 0)  -->
<svg version="1.1" id="Layer_1" xmlns="http://www.w3.org/2000/svg" xmlns:xlink="http://www.w3.org/1999/xlink" x="0px" y="0px"
	 viewBox="0 0 233.5 98.7" style="enable-background:new 0 0 233.5 98.7;" xml:space="preserve">
<style type="text/css">
	.st0{fill:#FF0013;}
</style>
<title>hqdefault</title>
<path class="st0" d="M134.8,9.4H126v35.3h-18V0.1h66.9l1.1,3.7l3.6,0.9v39.8h-17.8V9.3H153v35.4h-18.2V9.4z"/>
<path class="st0" d="M98.4,44.8H81V27.5h-9.2v17.3H54.1V5l3.4-1.3L58.6,0h35.2L95,3.8l3.4,1V44.8z M72.2,9.4v8.1h8.2V9.4H72.2z"/>
<path class="st0" d="M199,81.4h-8.9v17.2h-18V54h39.8l1.2,3.7l3.7,1.1v12.4l-4,1.6V80l4.1,1.5v17H199V81.4z M190.4,63.2v8.2h8.1
	v-8.2C198.5,63.2,190.4,63.2,190.4,63.2z"/>
<path class="st0" d="M49.9,54l1.1,3.7l3.9,1.3v34.8L51,95l-1,3.7H15l-1.2-3.9l-3.7-0.7V59l3.6-1.3L15,54C15,54,49.9,54,49.9,54z
	 M28.4,63.2v26.1h8.1V63.2H28.4z"/>
<path class="st0" d="M64.1,54H82v35.5h8.7V54.1h18v39.7L105,95l-1.1,3.7H64.1V54z"/>
<path class="st0" d="M18.4,35.5h8.1v-7.9l-4-1.1v-8.5h22.1v26.5h-40l-0.9-3.6L0,40.1V4.9l3.7-1.2l0.8-3.7h40.1v8.7H18.4L18.4,35.5
	L18.4,35.5z"/>
<path class="st0" d="M193.6,44.6l-0.8-3.7l-3.9-0.8V4.9l3.7-1.1l1.1-3.7h39.7v8.8h-26.4v8.7h12.9V27h-13v8.6h26.4v9L193.6,44.6
	L193.6,44.6z"/>
<path class="st0" d="M149.2,72.1v8.8h-12.8l-0.4,8.8h26.7v9h-39.6l-1.3-3.6l-3.7-1V58.9l3.6-1.2l1.2-3.7h39.7v8.6h-26.1v8.9
	L149.2,72.1z"/>
</svg>
