<?xml version="1.0" encoding="utf-8"?>
<!-- Generator: Adobe Illustrator 22.1.0, SVG Export Plug-In . SVG Version: 6.00 Build 0)  -->
<svg version="1.1" id="Layer_1" xmlns="http://www.w3.org/2000/svg" xmlns:xlink="http://www.w3.org/1999/xlink" x="0px" y="0px"
	 viewBox="0 0 512 512" style="enable-background:new 0 0 512 512;" xml:space="preserve">
<style type="text/css">
	.st0{fill:#D8EAEF;}
	.st1{fill:#FFFFFF;}
	.st2{fill:none;stroke:#354F65;stroke-width:13;stroke-linecap:round;stroke-linejoin:round;stroke-miterlimit:10;}
</style>
<g>
	<path class="st0" d="M333.6,179.7c-5.7-59.5-59-106.2-123.8-106.2c-68.6,0-124.3,52.3-124.3,116.8c0,6.3,0.5,12.4,1.5,18.4l0,0
		c-43.2,5.1-76.7,42.5-76.7,87.9c0,48.8,38.8,88.4,86.7,88.4h317.8c34.8,0,63.1-25,63.1-55.9c0-27.9-23.1-51.1-53.3-55.3l0,0
		c0-48.8-38.6-94.2-86.5-94.2C336.7,179.6,335.2,179.6,333.6,179.7"/>
	<path class="st1" d="M287.1,179.7c-4.9-59.5-49.9-107.2-105.3-103.2C147,79,85.6,125.8,85.6,190.3c0,6.3,1.5,18.4,1.5,18.4
		c-40.1,3.6-76.7,42.5-76.7,87.9c0,48.8,33.2,88.4,74.2,88.4h272.1c29.8,0,54-25,54-55.9c0-27.9-19.8-51.1-45.6-55.3l0,0
		c0-48.8-33.1-94.2-74.1-94.2C289.7,179.6,288.4,179.6,287.1,179.7c-21.7,1.4-40.9,13.8-53.8,32.7"/>
	<path class="st2" d="M414.9,385c34.8,0,63.1-25,63.1-55.9c0-27.9-23.1-51.1-53.3-55.3l0,0c0-48.8-43.2-94.1-91.1-94.1
		c-1.5,0,1.5-0.1,0,0c-25.4,1.4-47.8,13.8-62.8,32.7"/>
	<path class="st2" d="M333.6,179.7c-5.7-59.5-59-106.2-123.8-106.2c-68.6,0-124.3,52.3-124.3,116.8c0,6.3,0.5,12.4,1.5,18.4l0,0
		c-43.2,5.1-76.7,42.5-76.7,87.9c0,48.8,38.8,88.4,86.7,88.4h317.8"/>
</g>
</svg>
