<?xml version="1.0" encoding="utf-8"?>
<!-- Generator: Adobe Illustrator 22.1.0, SVG Export Plug-In . SVG Version: 6.00 Build 0)  -->
<svg version="1.1" id="Слой_1" xmlns="http://www.w3.org/2000/svg" xmlns:xlink="http://www.w3.org/1999/xlink" x="0px" y="0px"
	 viewBox="0 0 896.9 1024" style="enable-background:new 0 0 896.9 1024;" xml:space="preserve">
<style type="text/css">
	.st0{fill:#FFFFFF;}
</style>
<path class="st0" d="M612.4,159.9c-120.5,0-218.1,97.6-218.1,218.1c0,16.7,1.9,32.9,5.5,48.5L66.4,759.7v54.5l54.5,54.5h109
	l54.5-54.5v-54.5H339v-54.5h54.5v-54.5h109l60.3-60.3c15.9,3.7,32.5,5.6,49.5,5.6c120.5,0,218.1-97.6,218.1-218.1
	S732.8,159.9,612.4,159.9z M393.5,541.6L120.9,814.3v-54.5l272.6-272.6V541.6z M666.2,378.1c-30.1,0-54.5-24.5-54.5-54.5
	s24.5-54.5,54.5-54.5s54.5,24.5,54.5,54.5S696.2,378.1,666.2,378.1z"/>
</svg>
