<?xml version="1.0" encoding="utf-8"?>
<!-- Generator: Adobe Illustrator 22.1.0, SVG Export Plug-In . SVG Version: 6.00 Build 0)  -->
<svg version="1.1" id="Слой_1" xmlns:svg="http://www.w3.org/2000/svg"
	 xmlns="http://www.w3.org/2000/svg" xmlns:xlink="http://www.w3.org/1999/xlink" x="0px" y="0px" viewBox="0 0 420 420"
	 style="enable-background:new 0 0 420 420;" xml:space="preserve">
<style type="text/css">
	.st0{fill:#5E5E5E;stroke:#000000;stroke-width:5;}
	.st1{fill:#FFFFFF;}
	.st2{font-family:'Arial-BoldMT';}
	.st3{font-size:54.4375px;}
	.st4{enable-background:new    ;}
	.st5{letter-spacing:-3;}
</style>
<g>
	<polygon class="st0" points="42.5,42.5 377.5,42.5 377.5,126.3 42.5,126.3 42.5,210 377.5,210 377.5,293.8 42.5,293.8 42.5,377.5 
		377.5,377.5 377.5,42.5 293.8,42.5 293.8,377.5 210,377.5 210,42.5 126.3,42.5 126.3,377.5 42.5,377.5 	"/>
	<text transform="matrix(1 0 0 1 54.0996 101.1245)" class="st1 st2 st3">12</text>
	<text transform="matrix(1 0 0 1 152.9873 101.1245)" class="st1 st2 st3">1</text>
	<text transform="matrix(1 0 0 1 236.7373 101.1245)" class="st1 st2 st3">2</text>
	<text transform="matrix(1 0 0 1 305.3496 101.1245)" class="st1 st2 st3">15</text>
	<text transform="matrix(1 0 0 1 55.6011 184.875)" class="st4"><tspan x="0" y="0" class="st1 st2 st3 st5">1</tspan><tspan x="27.3" y="0" class="st1 st2 st3">1</tspan></text>
	<text transform="matrix(1 0 0 1 152.9873 184.875)" class="st1 st2 st3">6</text>
	<text transform="matrix(1 0 0 1 236.7373 184.875)" class="st1 st2 st3">5</text>
	<text transform="matrix(1 0 0 1 320.4873 184.875)" class="st1 st2 st3">8</text>
	<text transform="matrix(1 0 0 1 69.2373 268.625)" class="st1 st2 st3">7</text>
	<text transform="matrix(1 0 0 1 137.8496 268.625)" class="st1 st2 st3">10</text>
	<text transform="matrix(1 0 0 1 236.7373 268.625)" class="st1 st2 st3">9</text>
	<text transform="matrix(1 0 0 1 320.4873 268.625)" class="st1 st2 st3">4</text>
	<text transform="matrix(1 0 0 1 137.8496 352.375)" class="st1 st2 st3">13</text>
	<text transform="matrix(1 0 0 1 221.5996 352.375)" class="st1 st2 st3">14</text>
	<text transform="matrix(1 0 0 1 320.4873 352.375)" class="st1 st2 st3">3</text>
</g>
</svg>
