<?xml version="1.0" encoding="utf-8"?>
<!-- Generator: Adobe Illustrator 22.1.0, SVG Export Plug-In . SVG Version: 6.00 Build 0)  -->
<svg version="1.1" id="Layer_1" xmlns="http://www.w3.org/2000/svg" xmlns:xlink="http://www.w3.org/1999/xlink" x="0px" y="0px"
	 viewBox="0 0 512 512" style="enable-background:new 0 0 512 512;" xml:space="preserve">
<style type="text/css">
	.st0{fill:#FFFFFF;}
</style>
<g>
	<g>
		<path class="st0" d="M310.6,363.3v-80.9h-80.9v-80.9h-80.9v-81H39.5v352.1h352.1V363.3H310.6z M120.4,444.3H67.7v-52.7h52.7V444.3
			z M120.4,363.3H67.7v-52.7h52.7V363.3z M120.4,282.4H67.7v-52.7h52.7V282.4z M120.4,201.4H67.7v-52.7h52.7V201.4z M201.4,444.3
			h-52.7v-52.7h52.7V444.3z M201.4,363.3h-52.7v-52.7h52.7V363.3z M201.4,282.4h-52.7v-52.7h52.7V282.4z M282.4,444.3h-52.7v-52.7
			h52.7V444.3z M282.4,363.3h-52.7v-52.7h52.7V363.3z M363.3,444.3h-52.7v-52.7h52.7V444.3L363.3,444.3z"/>
	</g>
</g>
<g>
	<g>
		<path class="st0" d="M391.6,120.4V39.5H282.4v190.1h80.9v80.9h109.2V120.4H391.6z M363.3,201.4h-52.7v-52.7h52.7V201.4
			L363.3,201.4z M363.3,120.4h-52.7V67.7h52.7V120.4L363.3,120.4z M444.3,282.4h-52.7v-52.7h52.7V282.4z M444.3,201.4h-52.7v-52.7
			h52.7V201.4z"/>
	</g>
</g>
</svg>
